<?xml version='1.0' encoding='utf-8'?>
<svg xmlns="http://www.w3.org/2000/svg" width="1920" height="1080" viewBox="0 0 1920 1080" data-theme="dark">
  <style>
        @font-face {
            font-family: 'Inter';
            src: url('assets/fonts/Inter-Regular.ttf') format('truetype');
            font-weight: 400;
            font-style: normal;
            font-display: swap;
        }
        @font-face {
            font-family: 'Inter';
            src: url('assets/fonts/Inter-Bold.ttf') format('truetype');
            font-weight: 600;
            font-style: normal;
            font-display: swap;
        }
        @font-face {
            font-family: 'Inter';
            src: url('assets/fonts/Inter-Bold.ttf') format('truetype');
            font-weight: 800;
            font-style: normal;
            font-display: swap;
        }
        
:root {
    --background: #0f172a;
    --panel: #1e293b;
    --primary-text: #f1f5f9;
    --muted-text: #94a3b8;
    --inverse-text: #0f172a;
    --border: #334155;
    --shadow-color: #000000;
    --icon-pad-bg: #1e293b;
    --art-glow: #7dd3fc;
    --art-glow-opacity: 0.18;
    --art-sheen: #ffffff;
    --art-sheen-opacity: 0.18;
    --art-shadow: #000000;
    --art-shadow-opacity: 0.28;
    --art-muted-line: #64748b;
    --art-panel-tint: #1e293b;
    --font-family: 'Inter', 'Segoe UI', 'Kalam', Roboto, Helvetica, Arial, sans-serif;
    --radius-xl: 16px;
    --font-family-headline: 'Inter', 'Segoe UI', 'Kalam', Roboto, Helvetica, Arial, sans-serif;
    --font-family-body: 'Inter', 'Segoe UI', 'Kalam', Roboto, Helvetica, Arial, sans-serif;
    --font-heading: 'Inter', 'Segoe UI', 'Kalam', Roboto, Helvetica, Arial, sans-serif;
    --font-body: 'Inter', 'Segoe UI', 'Kalam', Roboto, Helvetica, Arial, sans-serif;
    --font-size-h1: 56px;
    --font-size-h2: 40px;
    --font-size-h3: 28px;
    --font-size-body: 24px;
    --font-size-caption: 18px;
    --secondary-text: var(--muted-text);
    --panel-border: var(--border);
    --font-weight-normal: 400;
    --font-weight-medium: 500;
    --font-weight-semibold: 600;
    --font-weight-bold: 700;
    --spacing-gutter-pct: 0.07;
    --spacing-top-pct: 0.15;
    --spacing-bottom-pct: 0.07;
    --spacing-title-y-pct: 0.055;
    --accent-1: #fbbf24;
    --accent-2: #fb923c;
    --accent-3: #f87171;
    --accent-4: #a3e635;
    --accent-5: #4ade80;
    --accent-6: #d4a574;
}
:root[data-theme="dark"] {
    --background: #0f172a;
    --panel: #1e293b;
    --primary-text: #f1f5f9;
    --muted-text: #94a3b8;
    --inverse-text: #0f172a;
    --border: #334155;
    --shadow-color: #000000;
    --icon-pad-bg: #1e293b;
    --art-glow: #7dd3fc;
    --art-glow-opacity: 0.18;
    --art-sheen: #ffffff;
    --art-sheen-opacity: 0.18;
    --art-shadow: #000000;
    --art-shadow-opacity: 0.28;
    --art-muted-line: #64748b;
    --art-panel-tint: #1e293b;
    --accent-1: #fbbf24;
    --accent-2: #fb923c;
    --accent-3: #f87171;
    --accent-4: #a3e635;
    --accent-5: #4ade80;
    --accent-6: #d4a574;
}
:root[data-theme="light"] {
    --background: #f8fafc;
    --panel: #ffffff;
    --primary-text: #0f172a;
    --muted-text: #64748b;
    --inverse-text: #ffffff;
    --border: #e2e8f0;
    --shadow-color: #000000;
    --icon-pad-bg: #1e293b;
    --art-glow: #0891b2;
    --art-glow-opacity: 0.10;
    --art-sheen: #ffffff;
    --art-sheen-opacity: 0.34;
    --art-shadow: #0f172a;
    --art-shadow-opacity: 0.14;
    --art-muted-line: #94a3b8;
    --art-panel-tint: #f1f5f9;
    --accent-1: #d97706;
    --accent-2: #ea580c;
    --accent-3: #dc2626;
    --accent-4: #65a30d;
    --accent-5: #16a34a;
    --accent-6: #92400e;
}</style>
  <rect x="0" y="0" width="1.92E+3" height="1.08E+3" fill="#252a34" stroke="none" id="programmatic_background"/>
  <line id="HEADER_DECOR" x1="960.0" x2="1080.0" y1="105.0" y2="105.0" stroke="var(--accent-1)" stroke-width="6" stroke-linecap="round"/>
  <defs>
    <pattern id="svgde14f0c0-napkin-hatch" patternUnits="userSpaceOnUse" width="12" height="12">
      <path d="M -3 12 L 12 -3 M 0 15 L 15 0" fill="none" stroke="var(--primary-text)" stroke-width="1" stroke-opacity="0.05"/>
    </pattern>
    <filter id="svgde14f0c0-shadow" x="-30%" y="-30%" width="160%" height="160%">
      <feDropShadow dx="0" dy="3" stdDeviation="6" flood-color="#000000" flood-opacity="0.10"/>
      <feDropShadow dx="0" dy="8" stdDeviation="12" flood-color="#000000" flood-opacity="0.16"/>
    </filter>
    <radialGradient id="svgde14f0c0-universal-edge-vignette" cx="50%" cy="50%" r="72%">
      <stop offset="0%" stop-color="var(--background)" stop-opacity="0"/>
      <stop offset="72%" stop-color="var(--background)" stop-opacity="0.12"/>
      <stop offset="100%" stop-color="var(--primary-text)" stop-opacity="0.08"/>
    </radialGradient>
    <linearGradient id="svgde14f0c0-universal-surface-sheen" x1="0%" y1="0%" x2="100%" y2="100%">
      <stop offset="0%" stop-color="var(--art-sheen)" stop-opacity="var(--art-sheen-opacity)"/>
      <stop offset="46%" stop-color="var(--art-sheen)" stop-opacity="0.035"/>
      <stop offset="100%" stop-color="var(--art-panel-tint)" stop-opacity="0.14"/>
    </linearGradient>
    <radialGradient id="svgde14f0c0-universal-icon-aura" cx="50%" cy="42%" r="64%">
      <stop offset="0%" stop-color="var(--art-glow)" stop-opacity="var(--art-glow-opacity)"/>
      <stop offset="100%" stop-color="var(--background)" stop-opacity="0"/>
    </radialGradient>
    <linearGradient id="svgde14f0c0-card-panel-sheen" x1="0%" y1="0%" x2="100%" y2="100%">
      <stop offset="0%" stop-color="var(--inverse-text)" stop-opacity="0.20"/>
      <stop offset="48%" stop-color="var(--inverse-text)" stop-opacity="0.04"/>
      <stop offset="100%" stop-color="var(--background)" stop-opacity="0.16"/>
    </linearGradient>
    <radialGradient id="svgde14f0c0-card-icon-glow" cx="50%" cy="35%" r="62%">
      <stop offset="0%" stop-color="var(--inverse-text)" stop-opacity="0.22"/>
      <stop offset="100%" stop-color="var(--background)" stop-opacity="0"/>
    </radialGradient>
    <filter id="svgde14f0c0-text-glow" x="-20%" y="-20%" width="140%" height="140%">
      <feDropShadow dx="0" dy="0" stdDeviation="2" flood-color="#000000" flood-opacity="0.4"/>
    </filter>
    <marker id="svgde14f0c0-arrowhead" markerWidth="10" markerHeight="7" refX="9" refY="3.5" orient="auto" markerUnits="strokeWidth">
      <polygon points="0 0, 10 3.5, 0 7" fill="var(--muted-text)" opacity="0.6"/>
    </marker>
  </defs>
  <rect width="100%" height="100%" fill="var(--background)" id="CANVAS_BG"/>
  <rect width="100%" height="100%" fill="url(#svgde14f0c0-napkin-hatch)"/>
  <rect id="UNIVERSAL_EDGE_VIGNETTE" width="100%" height="100%" fill="url(#svgde14f0c0-universal-edge-vignette)" opacity="0.62"/>
  <text id="TITLE" x="960.0" y="59" font-size="54" font-weight="800" fill="#f1f5f9" text-anchor="middle" style="font-size: 60px; font-family: Inter, Segoe UI, Kalam, Roboto, Helvetica, Arial, sans-serif; font-weight: 700; letter-spacing:-1.2px;" data-final-font-size="60">
    <tspan x="960.0" dy="68.00px">Thematic Sections of the Codex</tspan>
  </text>
  <rect id="TITLE_FRAME" x="134" y="35" width="1652" height="78" fill="none"/>
  <rect x="120" y="150" width="1680" height="830" rx="40" fill="var(--panel)" fill-opacity="0.24" stroke="var(--muted-text)" stroke-width="2" opacity="0.94"/>
  <g id="DIAGRAM_MAIN">
    <g filter="url(#svgde14f0c0-shadow)">
      <rect id="ITEM_1_BG" x="170" y="180" width="480" height="388" rx="28" fill="var(--panel)" fill-opacity="0.98" stroke="var(--accent-1)" stroke-width="3"/>
      <rect x="170" y="180" width="480" height="18" rx="9" fill="var(--accent-1)" fill-opacity="0.55"/>
      <rect x="295" y="216" width="230" height="30" rx="15" fill="var(--accent-1)" fill-opacity="0.10"/>
      <circle id="ITEM_1_PAD" cx="410" cy="262" r="54" fill="var(--icon-pad-bg)" opacity="0.95" fill-opacity="0.9" stroke-width="2" stroke="var(--primary-text)"/>
      <circle id="ITEM_1_PAD_INNER" cx="410" cy="262" r="42.12" fill="var(--accent-2)" fill-opacity="0.22"/>
      <circle cx="410" cy="262" r="42" fill="none" stroke="var(--accent-1)" stroke-width="3" stroke-dasharray="6 4"/>
      <g id="ITEM_1_ICON" transform="translate(373, 225)" data-icon-size="74">
        <g transform="translate(-8.847433628318589,-8.847433628318589) scale(3.9759292035398235)" vector-effect="non-scaling-stroke" stroke-width="2.60" stroke-linecap="round" stroke-linejoin="round" stroke-opacity="1.0">
          <path d="M11 20A7 7 0 0 1 9.8 6.1C15.5 5 17 4.48 19 2c1 2 2 4.18 2 8 0 5.5-4.78 10-10 10Z" vector-effect="non-scaling-stroke" fill="none" stroke="#f1f5f9"/>
          <path d="M2 21c0-3 1.85-5.36 5.08-6C9.5 14.52 12 13 13 12" vector-effect="non-scaling-stroke" fill="none" stroke="#f1f5f9"/>
        </g>
      </g>
      <text id="ITEM_1_HEAD" x="410.0" y="328.0" font-weight="800" font-size="28" fill="var(--accent-2)" text-anchor="middle" data-bg-id="ITEM_1_BG" fill-opacity="1.0" stroke="none" style="font-size: 30px; font-family: Inter, Segoe UI, Kalam, Roboto, Helvetica, Arial, sans-serif; font-weight: 700; letter-spacing:-0.4px;" data-final-font-size="30">
        <tspan x="410.0" dy="42.97px">Botanical Pages</tspan>
      </text>
      <rect id="ITEM_1_HEAD_FRAME" x="230" y="328" width="360" height="56" fill="none"/>
      <text id="ITEM_1_BODY" x="410.0" y="378.0" font-size="18" fill="var(--primary-text)" text-anchor="middle" data-bg-id="ITEM_1_BG" style="font-size: 26px; font-family: Inter, Segoe UI, Kalam, Roboto, Helvetica, Arial, sans-serif; font-weight: 400;" data-final-font-size="26">
        <tspan x="410.0" dy="47.53px">Illustrations of plants without known</tspan>
        <tspan x="410.0" dy="29.90px">species matches</tspan>
      </text>
      <rect id="ITEM_1_BODY_FRAME" x="195" y="378" width="430" height="156" fill="none"/>
    </g>
    <g filter="url(#svgde14f0c0-shadow)">
      <rect id="ITEM_2_BG" x="720" y="180" width="480" height="388" rx="28" fill="var(--panel)" fill-opacity="0.98" stroke="var(--accent-2)" stroke-width="3"/>
      <rect x="720" y="180" width="480" height="18" rx="9" fill="var(--accent-2)" fill-opacity="0.55"/>
      <rect x="845" y="216" width="230" height="30" rx="15" fill="var(--accent-2)" fill-opacity="0.10"/>
      <circle id="ITEM_2_PAD" cx="960" cy="262" r="54" fill="var(--icon-pad-bg)" opacity="0.95" fill-opacity="0.9" stroke-width="2" stroke="var(--primary-text)"/>
      <circle id="ITEM_2_PAD_INNER" cx="960" cy="262" r="42.12" fill="var(--accent-3)" fill-opacity="0.22"/>
      <circle cx="960" cy="262" r="42" fill="none" stroke="var(--accent-2)" stroke-width="3" stroke-dasharray="6 4"/>
      <g id="ITEM_2_ICON" transform="translate(923, 225)" data-icon-size="74">
        <g transform="translate(-11.031578947368427,-9.55368421052632) scale(0.18473684210526317)" vector-effect="non-scaling-stroke" fill="#f1f5f9" fill-opacity="1.0" stroke="none">
          <path fill="#f1f5f9" d="M353 26.1c-26.9 0-52 8.1-72.9 22L65.14 166l4.01 7.3L252.3 72.9c-19.5 23-31.2 52.7-31.2 85.2c0 41.3 19 78.2 48.7 102.4L76.78 197l-2.61 7.9l209.03 68.8l6.7-19.1c-31.4-20.6-52.2-56.2-52.2-96.5c0-63.6 51.7-115.3 115.3-115.3c63.7 0 115.3 51.7 115.3 115.3S416.7 273.4 353 273.4c-5.2 0-10.4-.3-15.4-1l-5.6 16c6.8 1.1 13.9 1.7 21 1.7c72.9 0 132-59.2 132-132s-59.1-132-132-132m-.6 119.5c-4.9.2-9.3 3.3-11.1 8.2c0 0-4.8 6.1-6.4 17.4c-.5 3.4.9 6.1.7 10.1c-.1 3.2-1.7 6.3-2.8 8.9c-9.6 23.6-24 54.7-34.8 82c-10.7 27.1-18.5 49.8-20.1 54.7l-163.2-25c-3-6.3-9.9-20.2-18.6-36.2c-10.57-19.4-24.35-41.2-33.73-58c-1.31-2.2-2.39-4.1-2.84-6.4c-.4-3.1.53-5.2-.1-7.8c-2.07-8.3-6.34-12.4-6.34-12.4c-2.61-5.2-8.89-7.2-14.01-4.6s-7.17 8.9-4.56 14c0 0 .79 5.9 6.33 12.5c1.71 2 3.97 2.5 6.23 4.6c1.74 1.7 2.64 4.1 3.5 6.1c8.04 17.4 17.62 41.4 27.07 61.4l21.72 44.3l32.53 5.9c-3 8.7-7.9 22.8-13.1 39.1c-7.4 23.8-14.6 52.6-20.93 72.6c-.5 3.2-1.7 5.5-2.9 8c-2 2-4.34 4-5.8 6c-4.96 8-5.11 15-5.11 15c-1.86 5 1.05 11 6.49 13s11.35-1 13.25-6c0 0 3.9-6 5.1-15c.3-3-.8-5-.7-9c.3-2.3.7-4.9 2.2-7c7.7-21 19.4-47.5 28-70.9c6.7-18 11.9-33.8 14.6-42l164.4 29.8c2.3 7.1 6.2 18.4 11 31.1c7.3 19 17.4 41 23.9 57c.8 2.1 1.7 3.7 1.8 6c-.1 3-1.4 5-1.1 8c.7 7 4.2 12 4.2 12c1.9 5 7.8 8 13.3 6c5.4-2 8.3-8 6.4-13c0 0 .1-6-4.3-12c-1.4-2-3.4-3-5.3-5c-1.4-1.7-1.5-3.9-2.5-6c-5.1-17-10.7-40-16.8-59.8c-2.3-7.3-4.6-14.2-6.6-20l12.6 2.3l16-24.5l-66.7-10.2c3.5-9 10.6-27.9 18.1-50.1c9.3-27.7 18.4-60.8 26.3-85.1c1-3.2 1.8-5.9 3.6-8.5c2.5-3.2 5.3-4.4 7.1-7.3c6.1-9.7 6.4-17.4 6.4-17.4c2.3-6.5-1-13.7-7.5-16c-1.6-.6-3.3-.8-4.9-.8m-27.7 273.5l-191.2 6.7l-6.7 16.5h207.7z" vector-effect="non-scaling-stroke" stroke="none"/>
        </g>
      </g>
      <text id="ITEM_2_HEAD" x="960.0" y="328.0" font-weight="800" font-size="28" fill="var(--accent-3)" text-anchor="middle" data-bg-id="ITEM_2_BG" fill-opacity="1.0" stroke="none" style="font-size: 30px; font-family: Inter, Segoe UI, Kalam, Roboto, Helvetica, Arial, sans-serif; font-weight: 700; letter-spacing:-0.4px;" data-final-font-size="30">
        <tspan x="960.0" dy="42.97px">Astronomical Diagrams</tspan>
      </text>
      <rect id="ITEM_2_HEAD_FRAME" x="780" y="328" width="360" height="56" fill="none"/>
      <text id="ITEM_2_BODY" x="960.0" y="378.0" font-size="18" fill="var(--primary-text)" text-anchor="middle" data-bg-id="ITEM_2_BG" style="font-size: 26px; font-family: Inter, Segoe UI, Kalam, Roboto, Helvetica, Arial, sans-serif; font-weight: 400;" data-final-font-size="26">
        <tspan x="960.0" dy="47.53px">Zodiac wheels and circular charts</tspan>
        <tspan x="960.0" dy="29.90px">for celestial study</tspan>
      </text>
      <rect id="ITEM_2_BODY_FRAME" x="745" y="378" width="430" height="156" fill="none"/>
    </g>
    <g filter="url(#svgde14f0c0-shadow)">
      <rect id="ITEM_3_BG" x="1270" y="180" width="480" height="388" rx="28" fill="var(--panel)" fill-opacity="0.98" stroke="var(--accent-3)" stroke-width="3"/>
      <rect x="1270" y="180" width="480" height="18" rx="9" fill="var(--accent-3)" fill-opacity="0.55"/>
      <rect x="1395" y="216" width="230" height="30" rx="15" fill="var(--accent-3)" fill-opacity="0.10"/>
      <circle id="ITEM_3_PAD" cx="1510" cy="262" r="54" fill="var(--icon-pad-bg)" opacity="0.95" fill-opacity="0.9" stroke-width="2" stroke="var(--primary-text)"/>
      <circle id="ITEM_3_PAD_INNER" cx="1510" cy="262" r="42.12" fill="var(--accent-4)" fill-opacity="0.22"/>
      <circle cx="1510" cy="262" r="42" fill="none" stroke="var(--accent-3)" stroke-width="3" stroke-dasharray="6 4"/>
      <g id="ITEM_3_ICON" transform="translate(1473, 225)" data-icon-size="74">
        <g transform="translate(-14.394128440366977,-11.302752293577987) scale(3.091376146788991)">
          <path d="M12.3136 12.7574L20.4999 11L25.7487 13.4646L11.6065 27.6067C9.6539 29.5593 6.48807 29.5593 4.53545 27.6067C2.58283 25.6541 2.58283 22.4882 4.53545 20.5356L5.59212 19.479L6.64879 19.5664V18.4223L9.84605 15.225L10.8949 15.1953V14.1762L12.3136 12.7574Z" fill="#C3EF3C"/>
          <path d="M21.8596 2.50428C21.2738 1.91849 20.3241 1.91849 19.7383 2.50428C19.1525 3.09007 19.1525 4.03982 19.7383 4.6256L20.0918 4.97916L15.1174 9.95364L15.5 11L14.1038 10.9672L12.3136 12.7574L25.7486 13.4645L27.1629 12.0502L27.5165 12.4038C28.1023 12.9896 29.052 12.9896 29.6378 12.4038C30.2236 11.818 30.2236 10.8682 29.6378 10.2825L21.8596 2.50428Z" fill="#AEDDFF"/>
          <path d="M15.1421 9.92896L17.4402 12.2271C17.7331 12.5199 17.7331 12.9948 17.4402 13.2877C17.1473 13.5806 16.6724 13.5806 16.3795 13.2877L14.0814 10.9896L15.1421 9.92896Z" fill="#008463"/>
          <path d="M10.8994 14.1716L13.1975 16.4697C13.4904 16.7626 13.4904 17.2375 13.1975 17.5304C12.9046 17.8233 12.4297 17.8233 12.1368 17.5304L9.83875 15.2323L10.8994 14.1716Z" fill="#008463"/>
          <path d="M8.95495 20.7123L6.65685 18.4142L5.59619 19.4748L7.89429 21.7729C8.18718 22.0658 8.66206 22.0658 8.95495 21.7729C9.24784 21.48 9.24784 21.0052 8.95495 20.7123Z" fill="#008463"/>
        </g>
      </g>
      <text id="ITEM_3_HEAD" x="1510.0" y="328.0" font-weight="800" font-size="28" fill="var(--accent-4)" text-anchor="middle" data-bg-id="ITEM_3_BG" fill-opacity="1.0" stroke="none" style="font-size: 30px; font-family: Inter, Segoe UI, Kalam, Roboto, Helvetica, Arial, sans-serif; font-weight: 700; letter-spacing:-0.4px;" data-final-font-size="30">
        <tspan x="1510.0" dy="42.97px">Biological Illustrations</tspan>
      </text>
      <rect id="ITEM_3_HEAD_FRAME" x="1330" y="328" width="360" height="56" fill="none"/>
      <text id="ITEM_3_BODY" x="1510.0" y="378.0" font-size="18" fill="var(--primary-text)" text-anchor="middle" data-bg-id="ITEM_3_BG" style="font-size: 26px; font-family: Inter, Segoe UI, Kalam, Roboto, Helvetica, Arial, sans-serif; font-weight: 400;" data-final-font-size="26">
        <tspan x="1510.0" dy="47.53px">Women connected by tubes</tspan>
        <tspan x="1510.0" dy="29.90px">and vessel networks</tspan>
      </text>
      <rect id="ITEM_3_BODY_FRAME" x="1295" y="378" width="430" height="156" fill="none"/>
    </g>
    <g filter="url(#svgde14f0c0-shadow)">
      <rect id="ITEM_4_BG" x="260" y="580" width="660" height="370" rx="30" fill="var(--panel)" fill-opacity="0.98" stroke="var(--accent-4)" stroke-width="3"/>
      <rect x="260" y="590" width="660" height="18" rx="9" fill="var(--accent-4)" fill-opacity="0.55"/>
      <rect x="430" y="628" width="320" height="32" rx="16" fill="var(--accent-4)" fill-opacity="0.10"/>
      <circle id="ITEM_4_PAD" cx="590" cy="684" r="54" fill="var(--icon-pad-bg)" opacity="0.95" fill-opacity="0.9" stroke-width="2" stroke="var(--primary-text)"/>
      <circle id="ITEM_4_PAD_INNER" cx="590" cy="684" r="42.12" fill="var(--accent-5)" fill-opacity="0.22"/>
      <circle cx="590" cy="684" r="42" fill="none" stroke="var(--accent-4)" stroke-width="3" stroke-dasharray="6 4"/>
      <g id="ITEM_4_ICON" transform="translate(551, 645)" data-icon-size="78">
        <g transform="translate(-9.137142857142862,-6.128571428571433) scale(0.3760714285714286)" vector-effect="non-scaling-stroke" stroke-width="2.65" stroke-linecap="round" stroke-linejoin="round" stroke-opacity="1.0">
          <path d="M24,176V64A24,24,0,0,1,48,40H64V152H48a24,24,0,0,0,0,48H232V64H64" fill="none" stroke="#f1f5f9" vector-effect="non-scaling-stroke"/>
          <line x1="128" y1="96" x2="128" y2="160" fill="none" stroke="#f1f5f9" vector-effect="non-scaling-stroke"/>
          <line x1="168" y1="96" x2="168" y2="160" fill="none" stroke="#f1f5f9" vector-effect="non-scaling-stroke"/>
          <line x1="104" y1="112" x2="192" y2="112" fill="none" stroke="#f1f5f9" vector-effect="non-scaling-stroke"/>
          <line x1="104" y1="144" x2="192" y2="144" fill="none" stroke="#f1f5f9" vector-effect="non-scaling-stroke"/>
        </g>
      </g>
      <text id="ITEM_4_HEAD" x="590.0" y="754.0" font-weight="800" font-size="30" fill="var(--accent-5)" text-anchor="middle" data-bg-id="ITEM_4_BG" fill-opacity="1.0" stroke="none" style="font-size: 30px; font-family: Inter, Segoe UI, Kalam, Roboto, Helvetica, Arial, sans-serif; font-weight: 700; letter-spacing:-0.4px;" data-final-font-size="30">
        <tspan x="590.0" dy="44.21px">Cosmological Fold-outs</tspan>
      </text>
      <rect id="ITEM_4_HEAD_FRAME" x="380" y="754" width="420" height="58" fill="none"/>
      <text id="ITEM_4_BODY" x="595.0" y="798.0" font-size="18" fill="var(--primary-text)" text-anchor="middle" data-bg-id="ITEM_4_BG" style="font-size: 26px; font-family: Inter, Segoe UI, Kalam, Roboto, Helvetica, Arial, sans-serif; font-weight: 400;" data-final-font-size="26">
        <tspan x="595.0" dy="45.54px">Visually striking diagrams of the</tspan>
        <tspan x="595.0" dy="29.90px">natural world</tspan>
      </text>
      <rect id="ITEM_4_BODY_FRAME" x="360" y="798" width="470" height="148" fill="none"/>
    </g>
    <g filter="url(#svgde14f0c0-shadow)">
      <rect id="ITEM_5_BG" x="1000" y="580" width="660" height="370" rx="30" fill="var(--panel)" fill-opacity="0.98" stroke="var(--accent-5)" stroke-width="3"/>
      <rect x="1000" y="590" width="660" height="18" rx="9" fill="var(--accent-5)" fill-opacity="0.55"/>
      <rect x="1170" y="628" width="320" height="32" rx="16" fill="var(--accent-5)" fill-opacity="0.10"/>
      <circle id="ITEM_5_PAD" cx="1330" cy="684" r="54" fill="var(--icon-pad-bg)" opacity="0.95" fill-opacity="0.9" stroke-width="2" stroke="var(--primary-text)"/>
      <circle id="ITEM_5_PAD_INNER" cx="1330" cy="684" r="42.12" fill="var(--accent-6)" fill-opacity="0.22"/>
      <circle cx="1330" cy="684" r="42" fill="none" stroke="var(--accent-5)" stroke-width="3" stroke-dasharray="6 4"/>
      <g id="ITEM_5_ICON" transform="translate(1291, 645)" data-icon-size="78">
        <g transform="translate(-17.160000000000007,-33.39375000000001) scale(4.680000000000001)" vector-effect="non-scaling-stroke" fill="#f1f5f9" fill-opacity="1.0" stroke="none">
          <path fill="#f1f5f9" d="M19 19c0 1.1-.9 2-2 2H7c-1.1 0-2-.9-2-2v-7H3v-2h18v2h-2z" vector-effect="non-scaling-stroke" stroke="none"/>
        </g>
      </g>
      <text id="ITEM_5_HEAD" x="1330.0" y="754.0" font-weight="800" font-size="30" fill="var(--accent-6)" text-anchor="middle" data-bg-id="ITEM_5_BG" fill-opacity="1.0" stroke="none" style="font-size: 30px; font-family: Inter, Segoe UI, Kalam, Roboto, Helvetica, Arial, sans-serif; font-weight: 700; letter-spacing:-0.4px;" data-final-font-size="30">
        <tspan x="1330.0" dy="44.21px">Pharmaceutical Pages</tspan>
      </text>
      <rect id="ITEM_5_HEAD_FRAME" x="1120" y="754" width="420" height="58" fill="none"/>
      <text id="ITEM_5_BODY" x="1335.0" y="798.0" font-size="18" fill="var(--primary-text)" text-anchor="middle" data-bg-id="ITEM_5_BG" style="font-size: 26px; font-family: Inter, Segoe UI, Kalam, Roboto, Helvetica, Arial, sans-serif; font-weight: 400;" data-final-font-size="26">
        <tspan x="1335.0" dy="45.54px">Depictions of jars, roots, and</tspan>
        <tspan x="1335.0" dy="29.90px">plant fragments</tspan>
      </text>
      <rect id="ITEM_5_BODY_FRAME" x="1100" y="798" width="470" height="148" fill="none"/>
    </g>
  </g>
</svg>
