<?xml version='1.0' encoding='utf-8'?>
<svg xmlns="http://www.w3.org/2000/svg" width="1920" height="1080" viewBox="0 0 1920 1080" data-theme="dark" data-semantic-intent="uncertain_compare" data-relation-type="hypothesis_comparison">
  <style>
        @font-face {
            font-family: 'Inter';
            src: url('assets/fonts/Inter-Regular.ttf') format('truetype');
            font-weight: 400;
            font-style: normal;
            font-display: swap;
        }
        @font-face {
            font-family: 'Inter';
            src: url('assets/fonts/Inter-Bold.ttf') format('truetype');
            font-weight: 600;
            font-style: normal;
            font-display: swap;
        }
        @font-face {
            font-family: 'Inter';
            src: url('assets/fonts/Inter-Bold.ttf') format('truetype');
            font-weight: 800;
            font-style: normal;
            font-display: swap;
        }
        
:root {
    --background: #0f172a;
    --panel: #1e293b;
    --primary-text: #f1f5f9;
    --muted-text: #94a3b8;
    --inverse-text: #0f172a;
    --border: #334155;
    --shadow-color: #000000;
    --icon-pad-bg: #1e293b;
    --art-glow: #7dd3fc;
    --art-glow-opacity: 0.18;
    --art-sheen: #ffffff;
    --art-sheen-opacity: 0.18;
    --art-shadow: #000000;
    --art-shadow-opacity: 0.28;
    --art-muted-line: #64748b;
    --art-panel-tint: #1e293b;
    --semantic-risk: #f87171;
    --semantic-warning: #fb923c;
    --semantic-uncertain: #fbbf24;
    --semantic-evidence: #60a5fa;
    --semantic-claim: #c084fc;
    --semantic-positive: #4ade80;
    --semantic-outcome: #22d3ee;
    --font-family: 'Inter', 'Segoe UI', 'Kalam', Roboto, Helvetica, Arial, sans-serif;
    --radius-xl: 16px;
    --font-family-headline: 'Inter', 'Segoe UI', 'Kalam', Roboto, Helvetica, Arial, sans-serif;
    --font-family-body: 'Inter', 'Segoe UI', 'Kalam', Roboto, Helvetica, Arial, sans-serif;
    --font-heading: 'Inter', 'Segoe UI', 'Kalam', Roboto, Helvetica, Arial, sans-serif;
    --font-body: 'Inter', 'Segoe UI', 'Kalam', Roboto, Helvetica, Arial, sans-serif;
    --font-size-h1: 56px;
    --font-size-h2: 40px;
    --font-size-h3: 28px;
    --font-size-body: 24px;
    --font-size-caption: 18px;
    --secondary-text: var(--muted-text);
    --panel-border: var(--border);
    --font-weight-normal: 400;
    --font-weight-medium: 500;
    --font-weight-semibold: 600;
    --font-weight-bold: 700;
    --spacing-gutter-pct: 0.07;
    --spacing-top-pct: 0.15;
    --spacing-bottom-pct: 0.07;
    --spacing-title-y-pct: 0.055;
    --accent-1: #60a5fa;
    --accent-2: #4ade80;
    --accent-3: #f97316;
    --accent-4: #a78bfa;
    --accent-5: #38bdf8;
    --accent-6: #94a3b8;
}
:root[data-theme="dark"] {
    --background: #0f172a;
    --panel: #1e293b;
    --primary-text: #f1f5f9;
    --muted-text: #94a3b8;
    --inverse-text: #0f172a;
    --border: #334155;
    --shadow-color: #000000;
    --icon-pad-bg: #1e293b;
    --art-glow: #7dd3fc;
    --art-glow-opacity: 0.18;
    --art-sheen: #ffffff;
    --art-sheen-opacity: 0.18;
    --art-shadow: #000000;
    --art-shadow-opacity: 0.28;
    --art-muted-line: #64748b;
    --art-panel-tint: #1e293b;
    --semantic-risk: #f87171;
    --semantic-warning: #fb923c;
    --semantic-uncertain: #fbbf24;
    --semantic-evidence: #60a5fa;
    --semantic-claim: #c084fc;
    --semantic-positive: #4ade80;
    --semantic-outcome: #22d3ee;
    --accent-1: #60a5fa;
    --accent-2: #4ade80;
    --accent-3: #f97316;
    --accent-4: #a78bfa;
    --accent-5: #38bdf8;
    --accent-6: #94a3b8;
}
:root[data-theme="light"] {
    --background: #f8fafc;
    --panel: #ffffff;
    --primary-text: #0f172a;
    --muted-text: #64748b;
    --inverse-text: #ffffff;
    --border: #e2e8f0;
    --shadow-color: #000000;
    --icon-pad-bg: #1e293b;
    --art-glow: #0891b2;
    --art-glow-opacity: 0.10;
    --art-sheen: #ffffff;
    --art-sheen-opacity: 0.34;
    --art-shadow: #0f172a;
    --art-shadow-opacity: 0.14;
    --art-muted-line: #94a3b8;
    --art-panel-tint: #f1f5f9;
    --semantic-risk: #b91c1c;
    --semantic-warning: #c2410c;
    --semantic-uncertain: #a16207;
    --semantic-evidence: #1d4ed8;
    --semantic-claim: #6d28d9;
    --semantic-positive: #15803d;
    --semantic-outcome: #0e7490;
    --accent-1: #2563eb;
    --accent-2: #16a34a;
    --accent-3: #ea580c;
    --accent-4: #7c3aed;
    --accent-5: #0284c7;
    --accent-6: #475569;
}</style>
  <rect x="0" y="0" width="1.92E+3" height="1.08E+3" fill="#252a34" stroke="none" id="programmatic_background"/>
  <line id="HEADER_DECOR" x1="960.0" x2="1080.0" y1="85.0" y2="85.0" stroke="var(--accent-1)" stroke-width="6" stroke-linecap="round"/>
  <defs>
    <pattern id="svg7611b3b1-napkin-hatch" patternUnits="userSpaceOnUse" width="12" height="12">
      <path d="M -3 12 L 12 -3 M 0 15 L 15 0" fill="none" stroke="var(--primary-text)" stroke-width="1" stroke-opacity="0.05"/>
    </pattern>
    <filter id="svg7611b3b1-shadow" x="-30%" y="-30%" width="160%" height="160%">
      <feDropShadow dx="0" dy="2" stdDeviation="3" flood-color="#000000" flood-opacity="0.08"/>
      <feDropShadow dx="0" dy="6" stdDeviation="10" flood-color="#000000" flood-opacity="0.12"/>
    </filter>
    <marker id="svg7611b3b1-arrowhead" markerWidth="10" markerHeight="10" refX="9" refY="5" orient="auto">
      <path d="M 0 0 L 10 5 L 0 10 Z" fill="var(--accent-1)"/>
    </marker>
    <filter id="svg7611b3b1-text-glow" x="-20%" y="-20%" width="140%" height="140%">
      <feDropShadow dx="0" dy="0" stdDeviation="2" flood-color="#000000" flood-opacity="0.4"/>
    </filter>
    <radialGradient id="svg7611b3b1-universal-edge-vignette" cx="50%" cy="50%" r="72%">
      <stop offset="0%" stop-color="var(--background)" stop-opacity="0"/>
      <stop offset="72%" stop-color="var(--background)" stop-opacity="0.12"/>
      <stop offset="100%" stop-color="var(--primary-text)" stop-opacity="0.08"/>
    </radialGradient>
    <linearGradient id="svg7611b3b1-universal-surface-sheen" x1="0%" y1="0%" x2="100%" y2="100%">
      <stop offset="0%" stop-color="var(--art-sheen)" stop-opacity="var(--art-sheen-opacity)"/>
      <stop offset="46%" stop-color="var(--art-sheen)" stop-opacity="0.035"/>
      <stop offset="100%" stop-color="var(--art-panel-tint)" stop-opacity="0.14"/>
    </linearGradient>
    <radialGradient id="svg7611b3b1-universal-icon-aura" cx="50%" cy="42%" r="64%">
      <stop offset="0%" stop-color="var(--art-glow)" stop-opacity="var(--art-glow-opacity)"/>
      <stop offset="100%" stop-color="var(--background)" stop-opacity="0"/>
    </radialGradient>
    <linearGradient id="svg7611b3b1-card-panel-sheen" x1="0%" y1="0%" x2="100%" y2="100%">
      <stop offset="0%" stop-color="var(--inverse-text)" stop-opacity="0.20"/>
      <stop offset="48%" stop-color="var(--inverse-text)" stop-opacity="0.04"/>
      <stop offset="100%" stop-color="var(--background)" stop-opacity="0.16"/>
    </linearGradient>
    <radialGradient id="svg7611b3b1-card-icon-glow" cx="50%" cy="35%" r="62%">
      <stop offset="0%" stop-color="var(--inverse-text)" stop-opacity="0.22"/>
      <stop offset="100%" stop-color="var(--background)" stop-opacity="0"/>
    </radialGradient>
  </defs>
  <rect width="100%" height="100%" fill="var(--background)" id="CANVAS_BG"/>
  <rect width="100%" height="100%" fill="url(#svg7611b3b1-napkin-hatch)"/>
  <rect id="UNIVERSAL_EDGE_VIGNETTE" width="100%" height="100%" fill="url(#svg7611b3b1-universal-edge-vignette)" opacity="0.62"/>
  <text id="TITLE" x="960.0" y="59" font-size="48" font-weight="700" fill="#f1f5f9" text-anchor="middle" style="font-size: 60px; font-family: Inter, Segoe UI, Kalam, Roboto, Helvetica, Arial, sans-serif; font-weight: 700; letter-spacing:-1.2px;" data-final-font-size="60">
    <tspan x="960.0" dy="68.00px">Interpretations of the Kaimanawa Wall</tspan>
  </text>
  <rect id="TITLE_FRAME" x="134" y="25" width="1652" height="70" fill="none"/>
  <g id="DIAGRAM_MAIN">
    <rect id="ITEM_1_BG" x="485" y="170" width="480" height="410" rx="16" fill="var(--semantic-uncertain)" stroke="var(--accent-1)" stroke-width="2" filter="url(#svg7611b3b1-shadow)" fill-opacity="0.4"/>
    <rect x="485" y="170" width="480" height="410" rx="16" fill="url(#svg7611b3b1-card-panel-sheen)" opacity="0.88"/>
    <rect x="485" y="186" width="460" height="12" fill="var(--accent-1)"/>
    <rect id="ITEM_1_HEAD_FRAME" x="500" y="288" width="450" height="96" fill="none"/>
    <rect id="ITEM_1_BODY_FRAME" x="500" y="382" width="450" height="168" fill="none"/>
    <circle id="ITEM_1_PAD" cx="715" cy="231" r="55" fill="var(--icon-pad-bg)" stroke="var(--primary-text)" opacity="0.9" fill-opacity="0.9" stroke-width="2"/>
    <circle cx="715" cy="231" r="44" fill="none" stroke="var(--accent-1)" stroke-width="3" stroke-dasharray="6 4"/>
    <circle id="ITEM_1_BADGE" cx="715" cy="231" r="43" fill="var(--accent-1)" stroke="var(--background)" stroke-width="4" fill-opacity="0.35" opacity="0.85" stroke-opacity="0.75"/>
    <g id="ITEM_1_ICON" transform="translate(682, 198)" data-icon-size="66">
      <g transform="translate(-12.759999999999998,-13.117499999999996) scale(0.17875)" vector-effect="non-scaling-stroke" fill="#ffffff" fill-opacity="1.0" stroke="none">
        <path fill="#ffffff" d="m18.08 23l.1 18H494V23zM254.3 54.93L133 61.6l30.1 68.5l98.1-3.6zm115.9.28l-92.9.53l3 71.96l96.8-.9zM18.23 56.43l.35 74.67l72.27-2.4l24.35-72.27zM393 64.24l-.5 47.16l15.7 21.5l85.8-6.3V64.93zM120.8 84.68l-17.6 49.82l41.1-1l-8.2-34.02zm354.7 56.02l-4 75.5l22.5-.6v-74.9zm-25.7 3.5l-97.3 10.7L346 219l110.7-3.2zm-243.8.7l-4 75.5l126.1-3.9l7-71.1zm-145.33 2.7l-3.9 75.5l126.13-3.9l-6.9-71.6zm-42 1.5l.33 72.4l24.77-.8l-6.9-71.6zm278.93 84.3L276 277.2l2.1 42l128.7-1.9l-7.6-79.7zm-40.2 1.4l-127.2 6l8 69.5l124.7 6.6zm236.6 3.1l-66.5 2.9l-7.5 75.8l74-5.2zm-474.89 7l.31 65.8l100.78-3.1l-6.9-62.7zm470.29 81.2l-115.9 10.5l-3.3 65l121.5-3.5zm-422.36 4.1l-47.52 2l.34 72.9l51.1-1.3zm17.84 0l3.98 68.5l138.64 9.6l-3-78.1zm161.22 4.3l-5.5 69l107.5 5.4l-1-73.5zm185.4 81.1l-4 75.5l66.5-.6v-73.8zm-9.8 1.2l-39 3.6l27.4 28zm-399.46 1.8l-2.13 40.6l.16 34.8H145.4v-68.9l-46.56-2.5l-18.4 14L68.56 421zm247.96.3l-111.3 1.5l3.5 72.5l114.7-2.4zm101.2 4.3l-72.2 5.9l-8.9 62.1l125.6.6l-6.2-27z" vector-effect="non-scaling-stroke" stroke="none"/>
      </g>
    </g>
    <text id="ITEM_1_HEAD" x="725.0" y="288.0" font-weight="700" font-size="26" fill="var(--primary-text)" text-anchor="middle" data-bg-id="ITEM_1_BG" fill-opacity="1.0" stroke="none" style="font-size: 30px; font-family: Inter, Segoe UI, Kalam, Roboto, Helvetica, Arial, sans-serif; font-weight: 700; letter-spacing:-0.4px;" data-final-font-size="30">
      <tspan x="725.0" dy="56.25px">Archaeological Claim</tspan>
    </text>
    <text id="ITEM_1_BODY" x="725.0" y="382.0" font-size="21" fill="var(--primary-text)" text-anchor="middle" data-bg-id="ITEM_1_BG" style="font-size: 26px; font-family: Inter, Segoe UI, Kalam, Roboto, Helvetica, Arial, sans-serif; font-weight: 400;" data-final-font-size="26">
      <tspan x="725.0" dy="42.44px">Proponents suggest a structure</tspan>
      <tspan x="725.0" dy="29.90px">built by unknown civilizations</tspan>
    </text>
    <rect id="ITEM_2_BG" x="975" y="170" width="480" height="410" rx="16" fill="var(--semantic-evidence)" stroke="var(--accent-2)" stroke-width="2" filter="url(#svg7611b3b1-shadow)" fill-opacity="0.4"/>
    <rect x="975" y="170" width="480" height="410" rx="16" fill="url(#svg7611b3b1-card-panel-sheen)" opacity="0.88"/>
    <rect x="975" y="186" width="460" height="12" fill="var(--accent-2)"/>
    <rect id="ITEM_2_HEAD_FRAME" x="990" y="288" width="450" height="96" fill="none"/>
    <rect id="ITEM_2_BODY_FRAME" x="990" y="382" width="450" height="168" fill="none"/>
    <circle id="ITEM_2_PAD" cx="1205" cy="231" r="55" fill="var(--icon-pad-bg)" stroke="var(--primary-text)" opacity="0.9" fill-opacity="0.9" stroke-width="2"/>
    <circle cx="1205" cy="231" r="44" fill="none" stroke="var(--accent-2)" stroke-width="3" stroke-dasharray="6 4"/>
    <circle id="ITEM_2_BADGE" cx="1205" cy="231" r="43" fill="var(--accent-2)" stroke="var(--background)" stroke-width="4" fill-opacity="0.35" opacity="0.85" stroke-opacity="0.75"/>
    <g id="ITEM_2_ICON" transform="translate(1172, 198)" data-icon-size="66">
      <g transform="translate(-16.02857142857143,-16.028571428571425) scale(3.064285714285714)">
        <path d="M17.17 6C18.2746 6 19.17 5.10457 19.17 4C19.17 2.89543 18.2746 2 17.17 2C16.0655 2 15.17 2.89543 15.17 4C15.17 5.10457 16.0655 6 17.17 6Z" fill="#9B9B9B"/>
        <path d="M19.17 8C20.2746 8 21.17 7.10457 21.17 6C21.17 4.89543 20.2746 4 19.17 4C18.0655 4 17.17 4.89543 17.17 6C17.17 7.10457 18.0655 8 19.17 8Z" fill="#D3D3D3"/>
        <path d="M19.85 6H16.17C16.17 4.89543 15.2746 4 14.17 4C13.0655 4 12.17 4.89543 12.17 6H11C9.89543 6 9 6.89543 9 8C9 9.10457 9.89543 10 11 10H12.5325C12.8286 10 13 10.1966 13 10.4675V13H19V10.4675C19 10.201 19.2079 10 19.4675 10H19.85H22C23.1046 10 24 9.10457 24 8C24 6.89543 23.1046 6 22 6H19.85Z" fill="#E6E6E6"/>
        <path d="M19.6133 14.3672L10.1329 14.9922L4.1424 27.8672C3.67976 28.8616 4.40571 30 5.5024 30H25.5027C25.5027 30 20.5839 15.9556 19.6133 14.3672Z" fill="#321B41"/>
        <path d="M25.1111 30L22.6241 23.6048C22.2478 22.6373 21.3162 22 20.2781 22C19.5062 22 18.812 21.53 18.5253 20.8133L17 17V14.6183L21.6133 14.3672L27.8639 27.8699C28.3241 28.864 27.5981 30 26.5027 30H25.1111Z" fill="#533566"/>
        <path d="M10 16C10 16 10 15.6598 10 15.4437C10 15.2276 10.2545 14.7023 10.2545 14.7023C10.2545 14.7023 11.0249 13.0353 11.2771 12.4399C11.4167 12.1104 11.6608 11.543 12.0406 11.2282C12.3468 10.9743 12.7723 10.9341 13.0632 10.9341C13.4518 10.9341 16.5575 10.9575 19 10.9765C19.6567 10.9816 19.9987 11.1403 20.422 11.7861C21.0227 13.078 21.6233 14.37 21.6233 14.37C21.6233 14.37 22 15.2766 22 15.7526V18C22 18.5523 21.5523 19 21 19C20.4477 19 20 18.5523 20 18C20 17.4477 19.5523 17 19 17C18.4477 17 18 17.4477 18 18V20C18 20.5523 17.5523 21 17 21C16.4477 21 16 20.5523 16 20V19C16 18.4477 15.5523 18 15 18C14.4477 18 14 18.4477 14 19V26C14 26.5523 13.5523 27 13 27C12.4477 27 12 26.5523 12 26C12 26 12 18.6435 12 18C12 17.3565 11.6129 17 11 17C10.3871 17 10 16.5523 10 16Z" fill="#FF6723"/>
        <path d="M16 10.6001C17.6569 10.6001 19 9.25695 19 7.6001C19 5.94324 17.6569 4.6001 16 4.6001C14.3431 4.6001 13 5.94324 13 7.6001C13 9.25695 14.3431 10.6001 16 10.6001Z" fill="#F4F4F4"/>
      </g>
    </g>
    <text id="ITEM_2_HEAD" x="1215.0" y="288.0" font-weight="700" font-size="26" fill="var(--primary-text)" text-anchor="middle" data-bg-id="ITEM_2_BG" fill-opacity="1.0" stroke="none" style="font-size: 30px; font-family: Inter, Segoe UI, Kalam, Roboto, Helvetica, Arial, sans-serif; font-weight: 700; letter-spacing:-0.4px;" data-final-font-size="30">
      <tspan x="1215.0" dy="56.25px">Geological Explanation</tspan>
    </text>
    <text id="ITEM_2_BODY" x="1215.0" y="382.0" font-size="21" fill="var(--primary-text)" text-anchor="middle" data-bg-id="ITEM_2_BG" style="font-size: 26px; font-family: Inter, Segoe UI, Kalam, Roboto, Helvetica, Arial, sans-serif; font-weight: 400;" data-final-font-size="26">
      <tspan x="1215.0" dy="42.44px">Natural fractures in volcanic rock</tspan>
      <tspan x="1215.0" dy="29.90px">formed 300,000 years ago</tspan>
    </text>
    <rect id="ITEM_3_BG" x="485" y="600" width="480" height="410" rx="16" fill="var(--semantic-uncertain)" stroke="var(--accent-3)" stroke-width="2" filter="url(#svg7611b3b1-shadow)" fill-opacity="0.4"/>
    <rect x="485" y="600" width="480" height="410" rx="16" fill="url(#svg7611b3b1-card-panel-sheen)" opacity="0.88"/>
    <rect x="485" y="616" width="460" height="12" fill="var(--accent-3)"/>
    <rect id="ITEM_3_HEAD_FRAME" x="500" y="718" width="450" height="96" fill="none"/>
    <rect id="ITEM_3_BODY_FRAME" x="500" y="812" width="450" height="168" fill="none"/>
    <circle id="ITEM_3_PAD" cx="715" cy="661" r="55" fill="var(--icon-pad-bg)" stroke="var(--primary-text)" opacity="0.9" fill-opacity="0.9" stroke-width="2"/>
    <circle cx="715" cy="661" r="44" fill="none" stroke="var(--accent-3)" stroke-width="3" stroke-dasharray="6 4"/>
    <circle id="ITEM_3_BADGE" cx="715" cy="661" r="43" fill="var(--accent-3)" stroke="var(--background)" stroke-width="4" fill-opacity="0.35" opacity="0.85" stroke-opacity="0.75"/>
    <g id="ITEM_3_ICON" transform="translate(682, 628)" data-icon-size="66">
      <g transform="translate(-16.028571428571425,-29.81785714285714) scale(3.064285714285714)">
        <path d="M5.5 11C5.22386 11 5 11.2239 5 11.5V13H9V11.5C9 11.2239 8.77614 11 8.5 11H5.5Z" fill="#D3D3D3"/>
        <path d="M21.5 11C21.2239 11 21 11.2239 21 11.5V13H27V11.5C27 11.2239 26.7761 11 26.5 11H21.5Z" fill="#D3D3D3"/>
        <path d="M2 14C2 12.8954 2.89543 12 4 12H28C29.1046 12 30 12.8954 30 14V16.5L28 22L30 27.5V28C30 29.1046 29.1046 30 28 30H4C2.89543 30 2 29.1046 2 28V27.5L3.5 22L2 16.5V14Z" fill="#E6E6E6"/>
        <path d="M2 16.5C2 16.2239 2.22386 16 2.5 16H29.5C29.7761 16 30 16.2239 30 16.5V27.5C30 27.7761 29.7761 28 29.5 28H2.5C2.22386 28 2 27.7761 2 27.5V16.5Z" fill="#533566"/>
        <path d="M22 22C22 25.3137 19.3137 28 16 28C12.6863 28 10 25.3137 10 22C10 18.6863 12.6863 16 16 16C19.3137 16 22 18.6863 22 22Z" fill="#321B41"/>
        <path d="M16 27C18.7614 27 21 24.7614 21 22C21 19.2386 18.7614 17 16 17C13.2386 17 11 19.2386 11 22C11 24.7614 13.2386 27 16 27ZM16 29C12.134 29 9 25.866 9 22C9 18.134 12.134 15 16 15C19.866 15 23 18.134 23 22C23 25.866 19.866 29 16 29Z" fill="#9B9B9B"/>
        <path d="M18.5 22C18.5 23.3807 17.3807 24.5 16 24.5C14.6193 24.5 13.5 23.3807 13.5 22C13.5 20.6193 14.6193 19.5 16 19.5C17.3807 19.5 18.5 20.6193 18.5 22Z" fill="#433B6B"/>
        <path d="M19.0825 19.875C19.4967 20.5924 19.4448 21.3979 18.9665 21.674C18.4882 21.9501 17.7647 21.5924 17.3505 20.875C16.9363 20.1575 16.9882 19.3521 17.4665 19.0759C17.9448 18.7998 18.6683 19.1575 19.0825 19.875Z" fill="white"/>
      </g>
    </g>
    <text id="ITEM_3_HEAD" x="725.0" y="718.0" font-weight="700" font-size="26" fill="var(--primary-text)" text-anchor="middle" data-bg-id="ITEM_3_BG" fill-opacity="1.0" stroke="none" style="font-size: 30px; font-family: Inter, Segoe UI, Kalam, Roboto, Helvetica, Arial, sans-serif; font-weight: 700; letter-spacing:-0.4px;" data-final-font-size="30">
      <tspan x="725.0" dy="56.25px">Cultural Persistence</tspan>
    </text>
    <text id="ITEM_3_BODY" x="725.0" y="812.0" font-size="21" fill="var(--primary-text)" text-anchor="middle" data-bg-id="ITEM_3_BG" style="font-size: 26px; font-family: Inter, Segoe UI, Kalam, Roboto, Helvetica, Arial, sans-serif; font-weight: 400;" data-final-font-size="26">
      <tspan x="725.0" dy="42.44px">Visual resemblance fuels enduring</tspan>
      <tspan x="725.0" dy="29.90px">folklore despite scientific data</tspan>
    </text>
    <rect id="ITEM_4_BG" x="975" y="600" width="480" height="410" rx="16" fill="var(--semantic-evidence)" stroke="var(--accent-4)" stroke-width="2" filter="url(#svg7611b3b1-shadow)" fill-opacity="0.4"/>
    <rect x="975" y="600" width="480" height="410" rx="16" fill="url(#svg7611b3b1-card-panel-sheen)" opacity="0.88"/>
    <rect x="975" y="616" width="460" height="12" fill="var(--accent-4)"/>
    <rect id="ITEM_4_HEAD_FRAME" x="990" y="718" width="450" height="96" fill="none"/>
    <rect id="ITEM_4_BODY_FRAME" x="990" y="812" width="450" height="168" fill="none"/>
    <circle id="ITEM_4_PAD" cx="1205" cy="661" r="55" fill="var(--icon-pad-bg)" stroke="var(--primary-text)" opacity="0.9" fill-opacity="0.9" stroke-width="2"/>
    <circle cx="1205" cy="661" r="44" fill="none" stroke="var(--accent-4)" stroke-width="3" stroke-dasharray="6 4"/>
    <circle id="ITEM_4_BADGE" cx="1205" cy="661" r="43" fill="var(--accent-4)" stroke="var(--background)" stroke-width="4" fill-opacity="0.35" opacity="0.85" stroke-opacity="0.75"/>
    <g id="ITEM_4_ICON" transform="translate(1172, 628)" data-icon-size="66">
      <g transform="translate(-11.992682926829268,-11.643902439024387) scale(0.697560975609756)">
        <path fill="#82AEC0" d="M54.8 85.4c-.4.5-.5 1.2-.1 1.7c2.3 2.7 9.5 11.3 10.7 13c1.4 1.8 0 3.1-.8 3.9c-27.1 27.4-47 20.6-53.4 19.4c-4.1-.8-6-2.8-6.6-6.7c-1.2-8.3-5.1-27.7 21.3-53c1.4-1.3 2.9-1.2 4-.3c.9.7 9.6 8.8 12.1 11.2c.4.4 1 .3 1.4 0c.9-.9 2.5-2.5 3.2-3.1c3.6-3.1 14.7 7.6 11 11.1z"/>
        <path id="SVGI2NChb5k" d="M54.8 85.4c-.4.5-.5 1.2-.1 1.7c2.3 2.7 9.5 11.3 10.7 13c1.4 1.8 0 3.1-.8 3.9c-27.1 27.4-47 20.6-53.4 19.4c-4.1-.8-6-2.8-6.6-6.7c-1.2-8.3-5.1-27.7 21.3-53c1.4-1.3 2.9-1.2 4-.3c.9.7 9.6 8.8 12.1 11.2c.4.4 1 .3 1.4 0c.9-.9 2.5-2.5 3.2-3.1c3.6-3.1 14.7 7.6 11 11.1z"/>
        <path fill="#2F7889" d="m28.3 61.4l-1.8 3.5c-.3.6-.2 1.4.3 1.9l13.8 13.4c.4.4.4 1 0 1.3l-2.4 2.3c-.4.4-1 .4-1.4 0L22.9 70.1c-1-1-1.2-2.6-.3-3.8l4.1-5.8zm30.1 20.5c-1.6 1.6-4.5 1.9-6.6.2c-.3-.3-.8-.2-1.1 0c-4.2 3.9-21.2 19.5-21.7 20c-.6.6-.1 1.3.6.8c9.8-7.3 17.5-8.4 18.8-6.9c2 2.2 7.3 8.3 9.1 10.3c.3.3.3.8 0 1.1c-6.4 6.2-17.5 14.8-33.8 17.6c-1.4.2-1 1.3-.3 1.3h18.4l28.4-26.1l-7 2.7c-.7.3-1.4.1-1.9-.4c-2.6-2.8-10.7-11.7-12.9-14c-.3-.3-.3-.7 0-1c.8-.8 2.1-1.1 8.5-1.4c1.7-.1 1.5-4.2 1.5-4.2" clip-path="url(#SVG9XC5db0L)"/>
        <path fill="#A06841" d="M84.6 34.9S49.8 70.3 48.5 71.7c-2.6 2.8 6 11.6 8.9 8.9c2-1.8 37.4-35.8 37.4-35.8z"/>
        <path id="SVGaKhYkewG" d="M84.6 34.9S49.8 70.3 48.5 71.7c-2.6 2.8 6 11.6 8.9 8.9c2-1.8 37.4-35.8 37.4-35.8z"/>
        <path fill="#7D5133" d="M86.5 56.3c-4.5-4.2-6.3-14.2-1.8-21.1l11.1 11z" clip-path="url(#SVG8G6Dkc4j)"/>
        <path fill="#82AEC0" d="m87.8 30.4l-4.4 4.4c-3 3.1 8.2 14.3 11.3 11.3c1-1 3.1-3 4-3.9c4.7 4.2 10.2 3 13.3 1.5c4.8-2.3 14.8-10.7 13.1-13.2c-.4-.6-1.3-1.6-1.3-1.6s-.8-.8-1.8.1c0 0-8.7 7.9-10.2 9c-2.2 1.6-5.3 1.9-8.1 0c-2.6-1.7-9.3-9.2-11.4-12.2c-1.7-2.5-2.8-5-.9-7.7c1.5-2 9.9-10.2 10.5-11c.9-1 .8-2 .2-2.6c-.4-.5-.9-.9-1.5-1.3c-1.7-1.5-11 6.7-15.1 14.3c-2.8 5 .3 10.2 2.3 12.9"/>
        <path id="SVGJA0CObfb" d="m87.8 30.4l-4.4 4.4c-3 3.1 8.2 14.3 11.3 11.3c1-1 3.1-3 4-3.9c4.7 4.2 10.2 3 13.3 1.5c4.8-2.3 14.8-10.7 13.1-13.2c-.4-.6-1.3-1.6-1.3-1.6s-.8-.8-1.8.1c0 0-8.7 7.9-10.2 9c-2.2 1.6-5.3 1.9-8.1 0c-2.6-1.7-9.3-9.2-11.4-12.2c-1.7-2.5-2.8-5-.9-7.7c1.5-2 9.9-10.2 10.5-11c.9-1 .8-2 .2-2.6c-.4-.5-.9-.9-1.5-1.3c-1.7-1.5-11 6.7-15.1 14.3c-2.8 5 .3 10.2 2.3 12.9"/>
        <path fill="#2F7889" d="m86.9 46.1l6.9-6.5c.5-.5 1.2-.5 1.7 0l3.3 2.7l.7 2.6l-6.7 6.6zm16.5-41.4c-3.5-2.2-13.1 9.7-14.7 12.4c-1.3 2.2-1.4 5.6.3 8.9c2.2 4.2 8.1 11.1 13.2 14.2c3 1.8 6.5 1.7 9 .4c3.2-1.6 13.4-9.9 12.2-12.7s-20-23.2-20-23.2" clip-path="url(#SVGqcOkKgqn)"/>
        <path fill="#A06841" d="M100.9 6.4c7 3.7 17.9 16.7 21.2 22.8c.2.4.2.8 0 1.1c-1.4 2.4-4.1 4.7-7 6.5c-.5.3-1.1.3-1.6-.1c-6.1-4.2-16-14.4-20.4-22.3c-.3-.5-.2-1.1 0-1.5c1.5-2.8 4.2-5.4 6.6-6.5c.4-.2.9-.1 1.2 0"/>
        <path id="SVGJVB7OeoP" d="M100.9 6.4c7 3.7 17.9 16.7 21.2 22.8c.2.4.2.8 0 1.1c-1.4 2.4-4.1 4.7-7 6.5c-.5.3-1.1.3-1.6-.1c-6.1-4.2-16-14.4-20.4-22.3c-.3-.5-.2-1.1 0-1.5c1.5-2.8 4.2-5.4 6.6-6.5c.4-.2.9-.1 1.2 0"/>
        <path fill="#7D5133" d="M104.5 7.2c-2.5.4-9.3 5.1-8.6 12.6c-4.4-2.2-7.2-6.3-7.2-6.3L99.9 2.6z" clip-path="url(#SVGIVfm6ceT)"/>
      </g>
    </g>
    <text id="ITEM_4_HEAD" x="1215.0" y="718.0" font-weight="700" font-size="26" fill="var(--primary-text)" text-anchor="middle" data-bg-id="ITEM_4_BG" fill-opacity="1.0" stroke="none" style="font-size: 30px; font-family: Inter, Segoe UI, Kalam, Roboto, Helvetica, Arial, sans-serif; font-weight: 700; letter-spacing:-0.4px;" data-final-font-size="30">
      <tspan x="1215.0" dy="56.25px">Scientific Evidence</tspan>
    </text>
    <text id="ITEM_4_BODY" x="1215.0" y="812.0" font-size="21" fill="var(--primary-text)" text-anchor="middle" data-bg-id="ITEM_4_BG" style="font-size: 26px; font-family: Inter, Segoe UI, Kalam, Roboto, Helvetica, Arial, sans-serif; font-weight: 400;" data-final-font-size="26">
      <tspan x="1215.0" dy="42.44px">Lack of construction debris</tspan>
      <tspan x="1215.0" dy="29.90px">or cultural material remains</tspan>
    </text>
  </g>
  <text id="SOURCE_NOTE" x="134.0" y="1058.0" fill="var(--muted-text)" opacity="0.88" style="font-family: var(--font-family); font-size: 20px;">Source: Introduction</text>
  <text id="EDITORIAL_NOTE" x="1786.0" y="1058.0" fill="var(--semantic-uncertain)" opacity="0.92" style="font-family: var(--font-family); font-size: 20px;" text-anchor="end">Interpretations remain disputed; wording reflects source uncertainty.</text>
</svg>
