<?xml version='1.0' encoding='utf-8'?>
<svg xmlns="http://www.w3.org/2000/svg" width="1920" height="1080" viewBox="0 0 1920 1080" data-theme="light" data-semantic-intent="sequence" data-relation-type="sequence">
  <style>
        @font-face {
            font-family: 'Inter';
            src: url('assets/fonts/Inter-Regular.ttf') format('truetype');
            font-weight: 400;
            font-style: normal;
            font-display: swap;
        }
        @font-face {
            font-family: 'Inter';
            src: url('assets/fonts/Inter-Bold.ttf') format('truetype');
            font-weight: 600;
            font-style: normal;
            font-display: swap;
        }
        @font-face {
            font-family: 'Inter';
            src: url('assets/fonts/Inter-Bold.ttf') format('truetype');
            font-weight: 800;
            font-style: normal;
            font-display: swap;
        }
        
:root {
    --background: #f8fafc;
    --panel: #ffffff;
    --primary-text: #0f172a;
    --muted-text: #64748b;
    --inverse-text: #ffffff;
    --border: #e2e8f0;
    --shadow-color: #000000;
    --icon-pad-bg: #1e293b;
    --art-glow: #0891b2;
    --art-glow-opacity: 0.10;
    --art-sheen: #ffffff;
    --art-sheen-opacity: 0.34;
    --art-shadow: #0f172a;
    --art-shadow-opacity: 0.14;
    --art-muted-line: #94a3b8;
    --art-panel-tint: #f1f5f9;
    --semantic-risk: #b91c1c;
    --semantic-warning: #c2410c;
    --semantic-uncertain: #a16207;
    --semantic-evidence: #1d4ed8;
    --semantic-claim: #6d28d9;
    --semantic-positive: #15803d;
    --semantic-outcome: #0e7490;
    --font-family: 'Inter', 'Segoe UI', 'Kalam', Roboto, Helvetica, Arial, sans-serif;
    --radius-xl: 16px;
    --font-family-headline: 'Inter', 'Segoe UI', 'Kalam', Roboto, Helvetica, Arial, sans-serif;
    --font-family-body: 'Inter', 'Segoe UI', 'Kalam', Roboto, Helvetica, Arial, sans-serif;
    --font-heading: 'Inter', 'Segoe UI', 'Kalam', Roboto, Helvetica, Arial, sans-serif;
    --font-body: 'Inter', 'Segoe UI', 'Kalam', Roboto, Helvetica, Arial, sans-serif;
    --font-size-h1: 56px;
    --font-size-h2: 40px;
    --font-size-h3: 28px;
    --font-size-body: 24px;
    --font-size-caption: 18px;
    --secondary-text: var(--muted-text);
    --panel-border: var(--border);
    --font-weight-normal: 400;
    --font-weight-medium: 500;
    --font-weight-semibold: 600;
    --font-weight-bold: 700;
    --spacing-gutter-pct: 0.07;
    --spacing-top-pct: 0.15;
    --spacing-bottom-pct: 0.07;
    --spacing-title-y-pct: 0.055;
    --accent-1: #2563eb;
    --accent-2: #16a34a;
    --accent-3: #ea580c;
    --accent-4: #7c3aed;
    --accent-5: #0284c7;
    --accent-6: #475569;
}
:root[data-theme="dark"] {
    --background: #0f172a;
    --panel: #1e293b;
    --primary-text: #f1f5f9;
    --muted-text: #94a3b8;
    --inverse-text: #0f172a;
    --border: #334155;
    --shadow-color: #000000;
    --icon-pad-bg: #1e293b;
    --art-glow: #7dd3fc;
    --art-glow-opacity: 0.18;
    --art-sheen: #ffffff;
    --art-sheen-opacity: 0.18;
    --art-shadow: #000000;
    --art-shadow-opacity: 0.28;
    --art-muted-line: #64748b;
    --art-panel-tint: #1e293b;
    --semantic-risk: #f87171;
    --semantic-warning: #fb923c;
    --semantic-uncertain: #fbbf24;
    --semantic-evidence: #60a5fa;
    --semantic-claim: #c084fc;
    --semantic-positive: #4ade80;
    --semantic-outcome: #22d3ee;
    --accent-1: #60a5fa;
    --accent-2: #4ade80;
    --accent-3: #f97316;
    --accent-4: #a78bfa;
    --accent-5: #38bdf8;
    --accent-6: #94a3b8;
}
:root[data-theme="light"] {
    --background: #f8fafc;
    --panel: #ffffff;
    --primary-text: #0f172a;
    --muted-text: #64748b;
    --inverse-text: #ffffff;
    --border: #e2e8f0;
    --shadow-color: #000000;
    --icon-pad-bg: #1e293b;
    --art-glow: #0891b2;
    --art-glow-opacity: 0.10;
    --art-sheen: #ffffff;
    --art-sheen-opacity: 0.34;
    --art-shadow: #0f172a;
    --art-shadow-opacity: 0.14;
    --art-muted-line: #94a3b8;
    --art-panel-tint: #f1f5f9;
    --semantic-risk: #b91c1c;
    --semantic-warning: #c2410c;
    --semantic-uncertain: #a16207;
    --semantic-evidence: #1d4ed8;
    --semantic-claim: #6d28d9;
    --semantic-positive: #15803d;
    --semantic-outcome: #0e7490;
    --accent-1: #2563eb;
    --accent-2: #16a34a;
    --accent-3: #ea580c;
    --accent-4: #7c3aed;
    --accent-5: #0284c7;
    --accent-6: #475569;
}</style>
  <rect x="0" y="0" width="1.92E+3" height="1.08E+3" fill="#252a34" stroke="none" id="programmatic_background"/>
  <line id="HEADER_DECOR" x1="960.0" x2="1080.0" y1="135.0" y2="135.0" stroke="var(--accent-1)" stroke-width="6" stroke-linecap="round"/>
  <defs>
    <pattern id="svg41f5cded-napkin-hatch" patternUnits="userSpaceOnUse" width="12" height="12">
      <path d="M -3 12 L 12 -3 M 0 15 L 15 0" fill="none" stroke="var(--primary-text)" stroke-width="1" stroke-opacity="0.05"/>
    </pattern>
    <radialGradient id="svg41f5cded-universal-edge-vignette" cx="50%" cy="50%" r="72%">
      <stop offset="0%" stop-color="var(--background)" stop-opacity="0"/>
      <stop offset="72%" stop-color="var(--background)" stop-opacity="0.12"/>
      <stop offset="100%" stop-color="var(--primary-text)" stop-opacity="0.08"/>
    </radialGradient>
    <linearGradient id="svg41f5cded-universal-surface-sheen" x1="0%" y1="0%" x2="100%" y2="100%">
      <stop offset="0%" stop-color="var(--art-sheen)" stop-opacity="var(--art-sheen-opacity)"/>
      <stop offset="46%" stop-color="var(--art-sheen)" stop-opacity="0.035"/>
      <stop offset="100%" stop-color="var(--art-panel-tint)" stop-opacity="0.14"/>
    </linearGradient>
    <radialGradient id="svg41f5cded-universal-icon-aura" cx="50%" cy="42%" r="64%">
      <stop offset="0%" stop-color="var(--art-glow)" stop-opacity="var(--art-glow-opacity)"/>
      <stop offset="100%" stop-color="var(--background)" stop-opacity="0"/>
    </radialGradient>
    <filter id="svg41f5cded-text-glow" x="-20%" y="-20%" width="140%" height="140%">
      <feDropShadow dx="0" dy="0" stdDeviation="2" flood-color="#000000" flood-opacity="0.4"/>
    </filter>
    <filter id="svg41f5cded-shadow" x="-30%" y="-30%" width="160%" height="160%">
      <feDropShadow dx="0" dy="2" stdDeviation="3" flood-color="#000000" flood-opacity="0.08"/>
      <feDropShadow dx="0" dy="6" stdDeviation="10" flood-color="#000000" flood-opacity="0.12"/>
    </filter>
    <marker id="svg41f5cded-arrowhead" markerWidth="10" markerHeight="7" refX="9" refY="3.5" orient="auto" markerUnits="strokeWidth">
      <polygon points="0 0, 10 3.5, 0 7" fill="var(--muted-text)" opacity="0.6"/>
    </marker>
    <marker id="svg41f5cded-PHX_SEQUENCE_DIRECTION_ARROW" markerWidth="18" markerHeight="18" refX="16" refY="9" orient="auto" markerUnits="userSpaceOnUse">
      <path d="M 0 0 L 18 9 L 0 18 Z" fill="var(--muted-text)" opacity="0.9"/>
    </marker>
  </defs>
  <rect width="100%" height="100%" fill="var(--background)" id="CANVAS_BG"/>
  <rect width="100%" height="100%" fill="url(#svg41f5cded-napkin-hatch)"/>
  <rect id="UNIVERSAL_EDGE_VIGNETTE" width="100%" height="100%" fill="url(#svg41f5cded-universal-edge-vignette)" opacity="0.62"/>
  <text id="TITLE" x="960.0" y="59" text-anchor="middle" font-size="63" font-weight="800" fill="#0f172a" style="font-size: 60px; font-family: Inter, Segoe UI, Kalam, Roboto, Helvetica, Arial, sans-serif; font-weight: 700; letter-spacing:-1.2px;" data-final-font-size="60">
    <tspan x="960.0" dy="68.00px">Vanikoro Shipwreck and Survival Time line</tspan>
  </text>
  <rect id="TITLE_FRAME" x="134" y="59" width="1652" height="103" fill="none"/>
  <g id="DIAGRAM_SCALER" transform="translate(55.0, 33.8) scale(0.88) translate(0, 25) translate(0, 25)">
    <g transform="translate(225.0, 540.0)">
      <circle id="ITEM_1_BG" r="90" fill="var(--accent-6)" stroke="var(--accent-1)" stroke-width="3" fill-opacity="1.0"/>
      <text id="ITEM_1_HEAD" text-anchor="middle" font-weight="bold" font-size="27" fill="var(--accent-6)" x="0.0" y="100.0" data-bg-id="CANVAS_BG" fill-opacity="1.0" style="font-size: 21px; font-family: Inter, Segoe UI, Kalam, Roboto, Helvetica, Arial, sans-serif; font-weight: 700; letter-spacing:-0.4px;" data-final-font-size="21">
        <tspan x="0.0" dy="17.65px">March 1788</tspan>
        <tspan x="0.0" dy="24.15px">Departure</tspan>
      </text>
      <rect id="ITEM_1_HEAD_FRAME" x="-75" y="100" width="150" height="50" fill="none"/>
      <circle id="ITEM_1_PAD" cx="0" cy="0" r="50" fill="var(--icon-pad-bg)" stroke="var(--primary-text)" opacity="0.9" fill-opacity="0.9" stroke-width="2"/>
      <circle id="ITEM_1_PAD_INNER" cx="0" cy="0" r="39.00" fill="var(--accent-6)" fill-opacity="0.22"/>
      <circle cx="0" cy="0" r="40" fill="none" stroke="var(--accent-1)" stroke-width="3" stroke-dasharray="6 4"/>
      <g id="ITEM_1_ICON" transform="translate(-50, -50)" data-icon-size="100" stroke-dasharray="6 4">
        <g transform="translate(-7.142857142857146,-7.142857142857143) scale(0.44642857142857145)" vector-effect="non-scaling-stroke" stroke-width="2.91" stroke-linecap="round" stroke-linejoin="round" stroke-opacity="1.0">
          <line x1="128" y1="48" x2="128" y2="24" fill="none" stroke="#f1f5f9" vector-effect="non-scaling-stroke"/>
          <line x1="128" y1="168" x2="128" y2="88" fill="none" stroke="#f1f5f9" vector-effect="non-scaling-stroke"/>
          <path d="M224,152c0,56-96,80-96,80s-96-24-96-80V125.77a8,8,0,0,1,5.47-7.59L128,88l90.53,30.18a8,8,0,0,1,5.47,7.59Z" fill="none" stroke="#f1f5f9" vector-effect="non-scaling-stroke" marker-end="url(#svg41f5cded-PHX_SEQUENCE_DIRECTION_ARROW)" data-direction-cue="forward"/>
          <path d="M56,112V56a8,8,0,0,1,8-8H192a8,8,0,0,1,8,8v56" fill="none" stroke="#f1f5f9" vector-effect="non-scaling-stroke"/>
          <line id="PHX_SEQUENCE_MIDROUTE_ARROW_1" x1="137.7" y1="115.0" x2="86.3" y2="93.0" stroke="var(--muted-text)" opacity="0.92" stroke-width="5" stroke-linecap="round" marker-end="url(#svg41f5cded-PHX_SEQUENCE_DIRECTION_ARROW)" data-direction-cue="forward"/>
        </g>
      </g>
    </g>
    <g fill="none" stroke="var(--muted-text)" stroke-width="4.5" stroke-dasharray="9 9">
      <path d="M 315 540 C 525 540 600 255 870 255"/>
      <path d="M 315 540 C 525 540 600 445 870 445"/>
      <path d="M 315 540 C 525 540 600 635 870 635"/>
      <path d="M 315 540 C 525 540 600 825 870 825"/>
    </g>
    <g transform="translate(900.0, 255.0)">
      <rect id="ITEM_2_BG" x="0" y="-80" width="675" height="160" rx="15" fill="var(--accent-1)" stroke="var(--accent-2)" stroke-width="3" fill-opacity="1.0"/>
      <g transform="translate(130, 0)">
        <text id="ITEM_2_HEAD" font-weight="bold" font-size="27" fill="var(--inverse-text)" x="-15.0" y="-50.0" data-bg-id="ITEM_2_BG" fill-opacity="1.0" style="font-size: 30px; font-family: Inter, Segoe UI, Kalam, Roboto, Helvetica, Arial, sans-serif; font-weight: 700; letter-spacing:-0.4px;" data-final-font-size="30">
          <tspan x="-15.0" dy="33.25px">Shipwreck</tspan>
        </text>
        <rect id="ITEM_2_HEAD_FRAME" x="-15" y="-50" width="545" height="50" fill="none"/>
        <text id="ITEM_2_BODY" font-size="19.5" fill="var(--inverse-text)" x="0.0" y="5.0" data-bg-id="ITEM_2_BG" style="font-size: 26px; font-family: Inter, Segoe UI, Kalam, Roboto, Helvetica, Arial, sans-serif; font-weight: 400;" data-final-font-size="26">
          <tspan x="0.0" dy="36.68px">Ships strike reefs and vanish</tspan>
          <tspan x="0.0" dy="29.90px">from European knowledge</tspan>
        </text>
        <rect id="ITEM_2_BODY_FRAME" x="0" y="5" width="380" height="120" fill="none"/>
      </g>
      <circle id="ITEM_2_PAD" cx="55" cy="0" r="50" fill="var(--icon-pad-bg)" stroke="var(--primary-text)" opacity="0.9" fill-opacity="0.9" stroke-width="2"/>
      <circle id="ITEM_2_PAD_INNER" cx="55" cy="0" r="39.00" fill="var(--accent-1)" fill-opacity="0.22"/>
      <circle cx="55" cy="0" r="40" fill="none" stroke="var(--accent-2)" stroke-width="3" stroke-dasharray="6 4"/>
      <g id="ITEM_2_ICON" transform="translate(5, -50)" data-icon-size="100" stroke-dasharray="6 4">
        <g transform="translate(-11.428571428571427,-10.952380952380953) scale(0.47619047619047616)" vector-effect="non-scaling-stroke" stroke-width="2.91" stroke-linecap="round" stroke-linejoin="round" stroke-opacity="1.0">
          <path d="M104,208H40a8,8,0,0,1-8-8V56a8,8,0,0,1,8-8H216a8,8,0,0,1,8,8V88l-48,16-16,40-40,16Z" fill="none" stroke="#f1f5f9" vector-effect="non-scaling-stroke"/>
          <path d="M137.73,208l7.94-23.8,39-15.58,15.58-39,23.8-7.94V200a8,8,0,0,1-8,8Z" fill="none" stroke="#f1f5f9" vector-effect="non-scaling-stroke"/>
          <path d="M32,168.69l54.34-54.35a8,8,0,0,1,11.32,0l39,39" fill="none" stroke="#f1f5f9" vector-effect="non-scaling-stroke"/>
        </g>
      </g>
    </g>
    <g transform="translate(900.0, 445.0)">
      <rect id="ITEM_3_BG" x="0" y="-80" width="675" height="160" rx="15" fill="var(--accent-2)" stroke="var(--accent-3)" stroke-width="3" fill-opacity="1.0"/>
      <g transform="translate(130, 0)">
        <text id="ITEM_3_HEAD" font-weight="bold" font-size="27" fill="var(--primary-text)" x="-15.0" y="-50.0" data-bg-id="ITEM_3_BG" fill-opacity="1.0" style="font-size: 30px; font-family: Inter, Segoe UI, Kalam, Roboto, Helvetica, Arial, sans-serif; font-weight: 700; letter-spacing:-0.4px;" data-final-font-size="30">
          <tspan x="-15.0" dy="33.25px">Camp Construction</tspan>
        </text>
        <rect id="ITEM_3_HEAD_FRAME" x="-15" y="-50" width="545" height="50" fill="none"/>
        <text id="ITEM_3_BODY" font-size="19.5" fill="var(--primary-text)" x="0.0" y="5.0" data-bg-id="ITEM_3_BG" style="font-size: 26px; font-family: Inter, Segoe UI, Kalam, Roboto, Helvetica, Arial, sans-serif; font-weight: 400;" data-final-font-size="26">
          <tspan x="0.0" dy="36.68px">Survivors build a fortified</tspan>
          <tspan x="0.0" dy="29.90px">inland settlement for months</tspan>
        </text>
        <rect id="ITEM_3_BODY_FRAME" x="0" y="5" width="380" height="120" fill="none"/>
      </g>
      <circle id="ITEM_3_PAD" cx="55" cy="0" r="50" fill="var(--icon-pad-bg)" stroke="var(--primary-text)" opacity="0.9" fill-opacity="0.9" stroke-width="2"/>
      <circle id="ITEM_3_PAD_INNER" cx="55" cy="0" r="39.00" fill="var(--accent-2)" fill-opacity="0.22"/>
      <circle cx="55" cy="0" r="40" fill="none" stroke="var(--accent-3)" stroke-width="3" stroke-dasharray="6 4"/>
      <g id="ITEM_3_ICON" transform="translate(5, -50)" data-icon-size="100" stroke-dasharray="6 4">
        <g transform="translate(-7.142857142857143,-8.92857142857143) scale(3.5714285714285716)">
          <path d="M28 30H19.57L16.07 24.69L12.57 30H4V17H28V30Z" fill="#6D4534"/>
          <path d="M29.93 17.855C29.93 18.485 29.42 18.995 28.79 18.995C28.72 18.995 28.63 18.985 28.56 18.975C27.27 18.845 27.16 17.965 25.66 17.965C24.05 17.965 24.05 18.995 22.44 18.995C20.83 18.995 20.83 17.965 19.22 17.965C17.61 17.965 17.61 18.995 16 18.995C14.39 18.995 14.39 17.965 12.79 17.965C11.18 17.965 11.18 18.995 9.58 18.995C7.97 18.995 7.97 17.965 6.37 17.965C4.76 17.965 4.75999 18.995 3.14999 18.995C3.13999 18.995 3.13999 18.995 3.12999 18.995H3.12C2.49 18.985 2 18.485 2 17.855C2 17.695 2.03 17.545 2.08 17.405C2.09 17.395 2.09999 17.385 2.09999 17.365C2.14999 17.285 2.20999 17.205 2.25999 17.135C3.03999 15.875 3.86999 14.655 4.73999 13.475C7.38999 9.84501 10.26 6.77501 13.56 3.93501C15.01 2.68501 17.16 2.68501 18.59 3.95501C21.77 6.78501 24.67 9.88501 27.25 13.475C28.12 14.675 28.95 15.915 29.74 17.185C29.78 17.255 29.82 17.335 29.87 17.405C29.9 17.545 29.93 17.695 29.93 17.855Z" fill="#F3AD61"/>
          <path d="M20 30H12V25.22C12 23.99 13.1429 23 14.5371 23H17.4514C18.8571 23 19.9886 24 19.9886 25.22V30H20Z" fill="#212121"/>
        </g>
      </g>
    </g>
    <g transform="translate(900.0, 635.0)">
      <rect id="ITEM_4_BG" x="0" y="-80" width="675" height="160" rx="15" fill="var(--accent-3)" stroke="var(--accent-4)" stroke-width="3" fill-opacity="1.0"/>
      <g transform="translate(130, 0)">
        <text id="ITEM_4_HEAD" font-weight="bold" font-size="27" fill="var(--primary-text)" x="-15.0" y="-50.0" data-bg-id="ITEM_4_BG" fill-opacity="1.0" style="font-size: 30px; font-family: Inter, Segoe UI, Kalam, Roboto, Helvetica, Arial, sans-serif; font-weight: 700; letter-spacing:-0.4px;" data-final-font-size="30">
          <tspan x="-15.0" dy="33.25px">Vessel Completion</tspan>
        </text>
        <rect id="ITEM_4_HEAD_FRAME" x="-15" y="-50" width="545" height="50" fill="none"/>
        <text id="ITEM_4_BODY" font-size="19.5" fill="var(--primary-text)" x="0.0" y="5.0" data-bg-id="ITEM_4_BG" style="font-size: 26px; font-family: Inter, Segoe UI, Kalam, Roboto, Helvetica, Arial, sans-serif; font-weight: 400;" data-final-font-size="26">
          <tspan x="0.0" dy="36.68px">Survivors assemble a small boat</tspan>
          <tspan x="0.0" dy="29.90px">from salvaged materials</tspan>
        </text>
        <rect id="ITEM_4_BODY_FRAME" x="0" y="5" width="380" height="120" fill="none"/>
      </g>
      <circle id="ITEM_4_PAD" cx="55" cy="0" r="50" fill="var(--icon-pad-bg)" stroke="var(--primary-text)" opacity="0.9" fill-opacity="0.9" stroke-width="2"/>
      <circle id="ITEM_4_PAD_INNER" cx="55" cy="0" r="39.00" fill="var(--accent-3)" fill-opacity="0.22"/>
      <circle cx="55" cy="0" r="40" fill="none" stroke="var(--accent-4)" stroke-width="3" stroke-dasharray="6 4"/>
      <g id="ITEM_4_ICON" transform="translate(5, -50)" data-icon-size="100" stroke-dasharray="6 4">
        <g transform="translate(-7.142857142857143,-7.142857142857143) scale(0.22321428571428573)" vector-effect="non-scaling-stroke" fill="#f1f5f9" fill-opacity="1.0" stroke="none">
          <path fill="#f1f5f9" d="M256 32A224 224 0 0 0 32 256a224 224 0 0 0 224 224a224 224 0 0 0 224-224A224 224 0 0 0 256 32M132.1 282.8c25.2.4 47 17.3 58.2 27.6c49.3 45.3 16.4 87.4-2.7 96.6c-33.9 16.5-68.9 9.7-86.8-16.1c-36.65-52.9-17.55-89.4 1.6-100.3c9.3-5.3 18.4-7.5 27.2-7.8zm247.8 0h2.5c8.8.3 17.9 2.5 27.2 7.8c19.2 10.9 38.3 47.4 1.6 100.3c-17.9 25.8-52.9 32.6-86.8 16.1c-19.1-9.2-52-51.3-2.7-96.6c11.2-10.3 33-27.2 58.2-27.6" vector-effect="non-scaling-stroke" stroke="none"/>
        </g>
      </g>
    </g>
    <g transform="translate(900.0, 825.0)">
      <rect id="ITEM_5_BG" x="0" y="-80" width="675" height="160" rx="15" fill="var(--accent-4)" stroke="var(--accent-5)" stroke-width="3" fill-opacity="1.0"/>
      <g transform="translate(130, 0)">
        <text id="ITEM_5_HEAD" font-weight="bold" font-size="27" fill="var(--inverse-text)" x="-15.0" y="-50.0" data-bg-id="ITEM_5_BG" fill-opacity="1.0" style="font-size: 30px; font-family: Inter, Segoe UI, Kalam, Roboto, Helvetica, Arial, sans-serif; font-weight: 700; letter-spacing:-0.4px;" data-final-font-size="30">
          <tspan x="-15.0" dy="33.25px">Final Departure</tspan>
        </text>
        <rect id="ITEM_5_HEAD_FRAME" x="-15" y="-50" width="545" height="50" fill="none"/>
        <text id="ITEM_5_BODY" font-size="19.5" fill="var(--inverse-text)" x="0.0" y="5.0" data-bg-id="ITEM_5_BG" style="font-size: 26px; font-family: Inter, Segoe UI, Kalam, Roboto, Helvetica, Arial, sans-serif; font-weight: 400;" data-final-font-size="26">
          <tspan x="0.0" dy="36.68px">Most survivors sail away into the</tspan>
          <tspan x="0.0" dy="29.90px">open Pacific</tspan>
        </text>
        <rect id="ITEM_5_BODY_FRAME" x="0" y="5" width="380" height="120" fill="none"/>
      </g>
      <circle id="ITEM_5_PAD" cx="55" cy="0" r="50" fill="var(--icon-pad-bg)" stroke="var(--primary-text)" opacity="0.9" fill-opacity="0.9" stroke-width="2"/>
      <circle id="ITEM_5_PAD_INNER" cx="55" cy="0" r="39.00" fill="var(--accent-4)" fill-opacity="0.22"/>
      <circle cx="55" cy="0" r="40" fill="none" stroke="var(--accent-5)" stroke-width="3" stroke-dasharray="6 4"/>
      <g id="ITEM_5_ICON" transform="translate(5, -50)" data-icon-size="100" stroke-dasharray="6 4">
        <g transform="translate(-7.142857142857143,-7.142857142857143) scale(3.5714285714285716)">
          <path d="M15.5 28C21.8513 28 27 22.8513 27 16.5C27 10.1487 21.8513 5 15.5 5C9.14873 5 4 10.1487 4 16.5C4 22.8513 9.14873 28 15.5 28Z" fill="#F4F4F4"/>
          <path d="M25.7663 7.73298C26.1431 7.9044 26.5609 8 27 8C28.65 8 30 6.65 30 5C30 3.35 28.65 2 27 2C25.35 2 24 3.35 24 5C24 5.43909 24.0956 5.85693 24.267 6.23373C21.9083 4.21752 18.8463 3 15.5 3C8.04416 3 2 9.04416 2 16.5C2 23.9558 8.04416 30 15.5 30C22.9558 30 29 23.9558 29 16.5C29 13.1537 27.7825 10.0917 25.7663 7.73298ZM25.39 4.99C25.39 4.1 26.11 3.38 27 3.38C27.88 3.38 28.61 4.1 28.61 4.99C28.61 5.88 27.89 6.6 27 6.6C26.11 6.6 25.39 5.88 25.39 4.99ZM26 16.5C26 22.299 21.299 27 15.5 27C9.70101 27 5 22.299 5 16.5C5 10.701 9.70101 6 15.5 6C21.299 6 26 10.701 26 16.5Z" fill="#F9C23C"/>
          <path d="M25.35 7.99994L23.99 6.63994L25.35 5.27994C25.72 4.90994 26.33 4.90994 26.71 5.27994C27.08 5.64994 27.08 6.25994 26.71 6.63994L25.35 7.99994Z" fill="#FFB02E"/>
          <path d="M13.2234 17.724L11.4099 20.21C11.2299 20.45 11.5299 20.75 11.7799 20.58L14.2735 18.7609L15.2099 24.7499C15.2599 25.0799 15.7399 25.0799 15.7899 24.7499L16.8663 17.8663L23.7499 16.7899C24.0799 16.7399 24.0799 16.2599 23.7499 16.2099L17.7609 15.2735L19.5799 12.78C19.7599 12.54 19.4599 12.24 19.2099 12.41L16.724 14.2234L15.7899 8.24994C15.7399 7.91994 15.2599 7.91994 15.2099 8.24994L14.1336 15.1336L7.24994 16.2099C6.91994 16.2599 6.91994 16.7399 7.24994 16.7899L13.2234 17.724Z" fill="#9B9B9B"/>
          <path d="M17.3382 15L20.9393 21.3271C21.1631 21.7255 20.7252 22.1629 20.3261 21.9394L14 18.3336L17.3382 15Z" fill="#9B9B9B"/>
          <path d="M13.6756 18L10.0605 11.672C9.83756 11.2741 10.2737 10.8373 10.6711 11.0606L17 14.671L13.6756 18Z" fill="#E5336D"/>
          <path d="M15.5 19C16.8807 19 18 17.8807 18 16.5C18 15.1193 16.8807 14 15.5 14C14.1193 14 13 15.1193 13 16.5C13 17.8807 14.1193 19 15.5 19Z" fill="#D3D3D3"/>
        </g>
      </g>
    </g>
  </g>
  <text id="SOURCE_NOTE" x="134.0" y="1058.0" fill="var(--muted-text)" opacity="0.88" style="font-family: var(--font-family); font-size: 20px;">Source: Introduction</text>
</svg>
