<?xml version='1.0' encoding='utf-8'?>
<svg xmlns="http://www.w3.org/2000/svg" width="1920" height="1080" viewBox="0 0 1920 1080" data-theme="dark" data-semantic-intent="taxonomy_list" data-relation-type="taxonomy">
  <style>
        @font-face {
            font-family: 'Inter';
            src: url('assets/fonts/Inter-Regular.ttf') format('truetype');
            font-weight: 400;
            font-style: normal;
            font-display: swap;
        }
        @font-face {
            font-family: 'Inter';
            src: url('assets/fonts/Inter-Bold.ttf') format('truetype');
            font-weight: 600;
            font-style: normal;
            font-display: swap;
        }
        @font-face {
            font-family: 'Inter';
            src: url('assets/fonts/Inter-Bold.ttf') format('truetype');
            font-weight: 800;
            font-style: normal;
            font-display: swap;
        }
        
:root {
    --background: #0f172a;
    --panel: #1e293b;
    --primary-text: #f1f5f9;
    --muted-text: #94a3b8;
    --inverse-text: #0f172a;
    --border: #334155;
    --shadow-color: #000000;
    --icon-pad-bg: #1e293b;
    --art-glow: #7dd3fc;
    --art-glow-opacity: 0.18;
    --art-sheen: #ffffff;
    --art-sheen-opacity: 0.18;
    --art-shadow: #000000;
    --art-shadow-opacity: 0.28;
    --art-muted-line: #64748b;
    --art-panel-tint: #1e293b;
    --semantic-risk: #f87171;
    --semantic-warning: #fb923c;
    --semantic-uncertain: #fbbf24;
    --semantic-evidence: #60a5fa;
    --semantic-claim: #c084fc;
    --semantic-positive: #4ade80;
    --semantic-outcome: #22d3ee;
    --font-family: 'Inter', 'Segoe UI', 'Kalam', Roboto, Helvetica, Arial, sans-serif;
    --radius-xl: 16px;
    --font-family-headline: 'Inter', 'Segoe UI', 'Kalam', Roboto, Helvetica, Arial, sans-serif;
    --font-family-body: 'Inter', 'Segoe UI', 'Kalam', Roboto, Helvetica, Arial, sans-serif;
    --font-heading: 'Inter', 'Segoe UI', 'Kalam', Roboto, Helvetica, Arial, sans-serif;
    --font-body: 'Inter', 'Segoe UI', 'Kalam', Roboto, Helvetica, Arial, sans-serif;
    --font-size-h1: 56px;
    --font-size-h2: 40px;
    --font-size-h3: 28px;
    --font-size-body: 24px;
    --font-size-caption: 18px;
    --secondary-text: var(--muted-text);
    --panel-border: var(--border);
    --font-weight-normal: 400;
    --font-weight-medium: 500;
    --font-weight-semibold: 600;
    --font-weight-bold: 700;
    --spacing-gutter-pct: 0.07;
    --spacing-top-pct: 0.15;
    --spacing-bottom-pct: 0.07;
    --spacing-title-y-pct: 0.055;
    --accent-1: #60a5fa;
    --accent-2: #4ade80;
    --accent-3: #f97316;
    --accent-4: #a78bfa;
    --accent-5: #38bdf8;
    --accent-6: #94a3b8;
}
:root[data-theme="dark"] {
    --background: #0f172a;
    --panel: #1e293b;
    --primary-text: #f1f5f9;
    --muted-text: #94a3b8;
    --inverse-text: #0f172a;
    --border: #334155;
    --shadow-color: #000000;
    --icon-pad-bg: #1e293b;
    --art-glow: #7dd3fc;
    --art-glow-opacity: 0.18;
    --art-sheen: #ffffff;
    --art-sheen-opacity: 0.18;
    --art-shadow: #000000;
    --art-shadow-opacity: 0.28;
    --art-muted-line: #64748b;
    --art-panel-tint: #1e293b;
    --semantic-risk: #f87171;
    --semantic-warning: #fb923c;
    --semantic-uncertain: #fbbf24;
    --semantic-evidence: #60a5fa;
    --semantic-claim: #c084fc;
    --semantic-positive: #4ade80;
    --semantic-outcome: #22d3ee;
    --accent-1: #60a5fa;
    --accent-2: #4ade80;
    --accent-3: #f97316;
    --accent-4: #a78bfa;
    --accent-5: #38bdf8;
    --accent-6: #94a3b8;
}
:root[data-theme="light"] {
    --background: #f8fafc;
    --panel: #ffffff;
    --primary-text: #0f172a;
    --muted-text: #64748b;
    --inverse-text: #ffffff;
    --border: #e2e8f0;
    --shadow-color: #000000;
    --icon-pad-bg: #1e293b;
    --art-glow: #0891b2;
    --art-glow-opacity: 0.10;
    --art-sheen: #ffffff;
    --art-sheen-opacity: 0.34;
    --art-shadow: #0f172a;
    --art-shadow-opacity: 0.14;
    --art-muted-line: #94a3b8;
    --art-panel-tint: #f1f5f9;
    --semantic-risk: #b91c1c;
    --semantic-warning: #c2410c;
    --semantic-uncertain: #a16207;
    --semantic-evidence: #1d4ed8;
    --semantic-claim: #6d28d9;
    --semantic-positive: #15803d;
    --semantic-outcome: #0e7490;
    --accent-1: #2563eb;
    --accent-2: #16a34a;
    --accent-3: #ea580c;
    --accent-4: #7c3aed;
    --accent-5: #0284c7;
    --accent-6: #475569;
}</style>
  <rect x="0" y="0" width="1.92E+3" height="1.08E+3" fill="#252a34" stroke="none" id="programmatic_background"/>
  <line id="HEADER_DECOR" x1="960.0" x2="1080.0" y1="90.0" y2="90.0" stroke="var(--accent-1)" stroke-width="6" stroke-linecap="round"/>
  <defs>
    <pattern id="svg2b1a2d5e-napkin-hatch" patternUnits="userSpaceOnUse" width="12" height="12">
      <path d="M -3 12 L 12 -3 M 0 15 L 15 0" fill="none" stroke="var(--primary-text)" stroke-width="1" stroke-opacity="0.05"/>
    </pattern>
    <filter id="svg2b1a2d5e-shadow" x="-30%" y="-30%" width="160%" height="160%">
      <feDropShadow dx="0" dy="2" stdDeviation="3" flood-color="#000000" flood-opacity="0.08"/>
      <feDropShadow dx="0" dy="6" stdDeviation="10" flood-color="#000000" flood-opacity="0.12"/>
    </filter>
    <radialGradient id="svg2b1a2d5e-universal-edge-vignette" cx="50%" cy="50%" r="72%">
      <stop offset="0%" stop-color="var(--background)" stop-opacity="0"/>
      <stop offset="72%" stop-color="var(--background)" stop-opacity="0.12"/>
      <stop offset="100%" stop-color="var(--primary-text)" stop-opacity="0.08"/>
    </radialGradient>
    <linearGradient id="svg2b1a2d5e-universal-surface-sheen" x1="0%" y1="0%" x2="100%" y2="100%">
      <stop offset="0%" stop-color="var(--art-sheen)" stop-opacity="var(--art-sheen-opacity)"/>
      <stop offset="46%" stop-color="var(--art-sheen)" stop-opacity="0.035"/>
      <stop offset="100%" stop-color="var(--art-panel-tint)" stop-opacity="0.14"/>
    </linearGradient>
    <radialGradient id="svg2b1a2d5e-universal-icon-aura" cx="50%" cy="42%" r="64%">
      <stop offset="0%" stop-color="var(--art-glow)" stop-opacity="var(--art-glow-opacity)"/>
      <stop offset="100%" stop-color="var(--background)" stop-opacity="0"/>
    </radialGradient>
    <radialGradient id="svg2b1a2d5e-venn-center-glow" cx="50%" cy="50%" r="60%">
      <stop offset="0%" stop-color="var(--art-glow)" stop-opacity="var(--art-glow-opacity)"/>
      <stop offset="100%" stop-color="var(--background)" stop-opacity="0"/>
    </radialGradient>
    <linearGradient id="svg2b1a2d5e-venn-label-sheen" x1="0%" y1="0%" x2="100%" y2="100%">
      <stop offset="0%" stop-color="var(--inverse-text)" stop-opacity="0.14"/>
      <stop offset="100%" stop-color="var(--background)" stop-opacity="0.12"/>
    </linearGradient>
    <filter id="svg2b1a2d5e-text-glow" x="-20%" y="-20%" width="140%" height="140%">
      <feDropShadow dx="0" dy="0" stdDeviation="2" flood-color="#000000" flood-opacity="0.4"/>
    </filter>
    <marker id="svg2b1a2d5e-arrowhead" markerWidth="10" markerHeight="7" refX="9" refY="3.5" orient="auto" markerUnits="strokeWidth">
      <polygon points="0 0, 10 3.5, 0 7" fill="var(--muted-text)" opacity="0.6"/>
    </marker>
  </defs>
  <rect width="100%" height="100%" fill="var(--background)" id="CANVAS_BG"/>
  <rect width="100%" height="100%" fill="url(#svg2b1a2d5e-napkin-hatch)"/>
  <rect id="UNIVERSAL_EDGE_VIGNETTE" width="100%" height="100%" fill="url(#svg2b1a2d5e-universal-edge-vignette)" opacity="0.62"/>
  <text id="TITLE" x="960.0" y="59" text-anchor="middle" font-weight="800" font-size="50" fill="#f1f5f9" style="font-size: 60px; font-family: Inter, Segoe UI, Kalam, Roboto, Helvetica, Arial, sans-serif; font-weight: 700; letter-spacing:-1.2px;" data-final-font-size="60">
    <tspan x="960.0" dy="68.00px">Factors Hindering Alpine Recovery</tspan>
  </text>
  <rect id="TITLE_FRAME" x="134" y="30" width="1652" height="70" fill="none"/>
  <g id="DIAGRAM_MAIN" transform="translate(960, 580)">
    <circle id="VENN_ART_CENTER_GLOW" cx="0" cy="0" r="255" fill="url(#svg2b1a2d5e-venn-center-glow)" opacity="0.95"/>
    <circle cx="0" cy="0" r="255" fill="url(#svg2b1a2d5e-venn-center-glow)" opacity="0.95"/>
    <circle cx="0" cy="0" r="255" fill="url(#svg2b1a2d5e-venn-center-glow)" opacity="0.95"/>
    <circle cx="0" cy="0" r="255" fill="url(#svg2b1a2d5e-venn-center-glow)" opacity="0.95"/>
    <circle cx="0" cy="0" r="255" fill="url(#svg2b1a2d5e-venn-center-glow)" opacity="0.95"/>
    <circle cx="0" cy="0" r="255" fill="url(#svg2b1a2d5e-venn-center-glow)" opacity="0.95"/>
    <circle cx="0" cy="0" r="255" fill="url(#svg2b1a2d5e-venn-center-glow)" opacity="0.95"/>
    <circle cx="0" cy="0" r="255" fill="url(#svg2b1a2d5e-venn-center-glow)" opacity="0.95"/>
    <circle cx="0" cy="0" r="255" fill="url(#svg2b1a2d5e-venn-center-glow)" opacity="0.95"/>
    <circle cx="0" cy="0" r="255" fill="url(#svg2b1a2d5e-venn-center-glow)" opacity="0.95"/>
    <circle cx="0" cy="0" r="255" fill="url(#svg2b1a2d5e-venn-center-glow)" opacity="0.95"/>
    <circle cx="0" cy="0" r="255" fill="url(#svg2b1a2d5e-venn-center-glow)" opacity="0.95"/>
    <circle cx="0" cy="0" r="255" fill="url(#svg2b1a2d5e-venn-center-glow)" opacity="0.95"/>
    <circle cx="0" cy="0" r="255" fill="url(#svg2b1a2d5e-venn-center-glow)" opacity="0.95"/>
    <circle cx="0" cy="0" r="255" fill="url(#svg2b1a2d5e-venn-center-glow)" opacity="0.95"/>
    <circle cx="0" cy="0" r="255" fill="url(#svg2b1a2d5e-venn-center-glow)" opacity="0.95"/>
    <circle cx="0" cy="0" r="255" fill="url(#svg2b1a2d5e-venn-center-glow)" opacity="0.95"/>
    <circle cx="0" cy="0" r="255" fill="url(#svg2b1a2d5e-venn-center-glow)" opacity="0.95"/>
    <circle cx="0" cy="0" r="255" fill="url(#svg2b1a2d5e-venn-center-glow)" opacity="0.95"/>
    <circle cx="0" cy="0" r="255" fill="url(#svg2b1a2d5e-venn-center-glow)" opacity="0.95"/>
    <circle cx="0" cy="0" r="255" fill="url(#svg2b1a2d5e-venn-center-glow)" opacity="0.95"/>
    <circle cx="0" cy="0" r="255" fill="url(#svg2b1a2d5e-venn-center-glow)" opacity="0.95"/>
    <circle cx="0" cy="0" r="255" fill="url(#svg2b1a2d5e-venn-center-glow)" opacity="0.95"/>
    <circle cx="0" cy="0" r="255" fill="url(#svg2b1a2d5e-venn-center-glow)" opacity="0.95"/>
    <circle cx="0" cy="0" r="255" fill="url(#svg2b1a2d5e-venn-center-glow)" opacity="0.95"/>
    <circle cx="0" cy="0" r="255" fill="url(#svg2b1a2d5e-venn-center-glow)" opacity="0.95"/>
    <!-- Circle backgrounds (pentagon arrangement) -->
    <!-- r=120, center offset 140 from origin -->
    <circle id="ITEM_1_BG" cx="0" cy="-140" r="180" fill="var(--semantic-risk)" fill-opacity="0.30" stroke="var(--border)" stroke-width="2"/>
    <circle id="ITEM_2_BG" cx="133" cy="-43" r="180" fill="var(--semantic-risk)" fill-opacity="0.30" stroke="var(--border)" stroke-width="2"/>
    <circle id="ITEM_3_BG" cx="82" cy="113" r="180" fill="var(--semantic-risk)" fill-opacity="0.30" stroke="var(--border)" stroke-width="2"/>
    <circle id="ITEM_4_BG" cx="-82" cy="113" r="180" fill="var(--semantic-risk)" fill-opacity="0.30" stroke="var(--border)" stroke-width="2"/>
    <circle id="ITEM_5_BG" cx="-133" cy="-43" r="180" fill="var(--semantic-risk)" fill-opacity="0.30" stroke="var(--border)" stroke-width="2"/>
    <!-- ITEM 1 - Top -->
    <circle id="ITEM_1_PAD" cx="0" cy="-270" r="48" fill="var(--icon-pad-bg)" stroke="var(--primary-text)" opacity="0.9" fill-opacity="0.9" stroke-width="2"/>
    <circle id="ITEM_1_PAD_INNER" cx="0" cy="-270" r="37.44" fill="var(--semantic-risk)" fill-opacity="0.22"/>
    <circle cx="0" cy="-270" r="38" fill="none" stroke="var(--accent-1)" stroke-width="3" stroke-dasharray="6 4"/>
    <g id="ITEM_1_ICON" transform="translate(-27, -297)" data-icon-size="54">
      <g transform="translate(-16.12285714285714,-15.788571428571426) scale(2.674285714285714)">
        <path d="M16.0899 3.59C14.2011 3.59 12.6699 5.12118 12.6699 7.01C12.6699 8.89881 14.2011 10.43 16.0899 10.43C17.9787 10.43 19.5099 8.89881 19.5099 7.01C19.5099 5.12118 17.9787 3.59 16.0899 3.59ZM11.1699 7.01C11.1699 4.29276 13.3727 2.09 16.0899 2.09C18.8072 2.09 21.0099 4.29276 21.0099 7.01C21.0099 9.72724 18.8072 11.93 16.0899 11.93C13.3727 11.93 11.1699 9.72724 11.1699 7.01Z" fill="#CA0B4A"/>
        <path d="M23.35 30H8.74C6.67 30 5 28.32 5 26.26V16.11C5 10.01 9.95 5.06 16.05 5.06C22.15 5.06 27.1 10.01 27.1 16.11V26.26C27.09 28.32 25.42 30 23.35 30Z" fill="#F8312F"/>
        <path d="M8 25.57C8 20.79 11.5792 16.92 16 16.92C20.4208 16.92 24 20.79 24 25.57V24.7C24 19.92 20.4208 16.05 16 16.05C11.5792 16.05 8 19.92 8 24.7V25.57Z" fill="#CA0B4A"/>
        <path d="M8.36589 11.5783C8.25899 11.8323 7.96651 11.952 7.71209 11.8456C7.45733 11.7391 7.3372 11.4462 7.44376 11.1914L7.44426 11.1902L7.44495 11.1886L7.44691 11.184L7.45317 11.1695C7.45839 11.1576 7.46571 11.1412 7.4752 11.1206C7.49419 11.0794 7.52188 11.0212 7.5588 10.9486C7.6326 10.8034 7.74349 10.5999 7.89574 10.3576C8.19988 9.87356 8.6714 9.23083 9.34518 8.58817C10.6993 7.29658 12.8617 6.01562 16.0775 6.01562C19.2945 6.01562 21.4135 7.29769 22.7239 8.59461C23.3753 9.23928 23.8237 9.88397 24.1103 10.3694C24.2537 10.6125 24.3572 10.8166 24.4258 10.9624C24.4601 11.0353 24.4857 11.0937 24.5032 11.1352C24.5119 11.1559 24.5187 11.1724 24.5235 11.1844L24.5293 11.199L24.5311 11.2037L24.5317 11.2054L24.5322 11.2066C24.6303 11.4648 24.5007 11.7535 24.2426 11.8517C23.9848 11.9497 23.6964 11.8205 23.5979 11.563L23.5975 11.5621L23.5952 11.5563L23.5876 11.5376L23.5819 11.5242C23.5693 11.4943 23.5492 11.4481 23.5208 11.3879C23.4642 11.2674 23.3751 11.0912 23.2491 10.8778C22.9968 10.4504 22.5989 9.87786 22.0204 9.30536C20.8712 8.16792 18.9965 7.01562 16.0775 7.01562C13.1574 7.01562 11.2335 8.16903 10.0354 9.31179C9.43304 9.88631 9.01193 10.4608 8.74247 10.8896C8.60792 11.1038 8.51178 11.2806 8.45024 11.4017C8.41949 11.4622 8.39743 11.5087 8.38359 11.5387C8.37667 11.5538 8.37181 11.5647 8.36895 11.5712L8.3663 11.5773L8.36589 11.5783Z" fill="#FCD53F"/>
        <path d="M17.85 12.09H14.25C13.838 12.09 13.4751 11.8858 13.2568 11.5727C13.1201 11.3767 13.04 11.138 13.04 10.88V10.28C13.04 9.61001 13.58 9.07001 14.25 9.07001H17.84C18.51 9.07001 19.05 9.61001 19.05 10.28V10.88C19.0539 11.1355 18.9777 11.372 18.8449 11.5669C18.6294 11.8833 18.2646 12.09 17.85 12.09Z" fill="#FCD53F"/>
        <path d="M8.03853 23.59C8.42853 23.59 8.75853 23.88 8.80853 24.26L9.07853 26.12C9.13853 26.58 8.77853 27 8.30853 27H7.77853C7.30853 27 6.93853 26.59 7.00853 26.12L7.26853 24.26C7.32853 23.87 7.64853 23.59 8.03853 23.59ZM7.60853 24.36C7.60853 24.6 7.79853 24.79 8.03853 24.79C8.27853 24.79 8.46853 24.6 8.46853 24.36C8.46853 24.12 8.27853 23.93 8.03853 23.93C7.79853 23.93 7.60853 24.12 7.60853 24.36Z" fill="#FCD53F"/>
      </g>
    </g>
    <rect id="ITEM_1_TEXT_BG" x="-208.0" y="-236.0" width="416.0" height="184.0" rx="16" fill="var(--panel)" fill-opacity="0.94" stroke="var(--primary-text)" stroke-opacity="0.12" stroke-width="1.5"/>
    <rect x="-208.0" y="-236.0" width="416.0" height="184.0" rx="16" fill="url(#svg2b1a2d5e-venn-label-sheen)" opacity="0.85"/>
    <text id="ITEM_1_HEAD" x="0.0" y="-220.0" text-anchor="middle" font-weight="bold" font-size="34" fill="var(--semantic-risk)" data-bg-id="ITEM_1_TEXT_BG" fill-opacity="1.0" stroke="none" style="font-size: 30px; font-family: Inter, Segoe UI, Kalam, Roboto, Helvetica, Arial, sans-serif; font-weight: 700; letter-spacing:-0.4px;" data-final-font-size="30">
      <tspan x="0.0" dy="31.25px">Glacial Separation</tspan>
    </text>
    <rect id="ITEM_1_HEAD_FRAME" x="-170" y="-220" width="340" height="46" fill="none"/>
    <text id="ITEM_1_BODY" x="0.0" y="-168.0" text-anchor="middle" font-size="20" fill="var(--primary-text)" data-bg-id="ITEM_1_TEXT_BG" style="font-size: 26px; font-family: Inter, Segoe UI, Kalam, Roboto, Helvetica, Arial, sans-serif; font-weight: 400;" data-final-font-size="26">
      <tspan x="0.0" dy="22.86px">Ice movement scatters</tspan>
      <tspan x="0.0" dy="29.90px">equipment away from</tspan>
      <tspan x="0.0" dy="29.90px">human remains</tspan>
    </text>
    <rect id="ITEM_1_BODY_FRAME" x="-190" y="-168" width="380" height="100" fill="none"/>
    <!-- ITEM 2 - Top Right -->
    <circle id="ITEM_2_PAD" cx="256" cy="-83" r="48" fill="var(--icon-pad-bg)" stroke="var(--primary-text)" opacity="0.9" fill-opacity="0.9" stroke-width="2"/>
    <circle id="ITEM_2_PAD_INNER" cx="256" cy="-83" r="37.44" fill="var(--semantic-risk)" fill-opacity="0.22"/>
    <circle cx="256" cy="-83" r="38" fill="none" stroke="var(--accent-2)" stroke-width="3" stroke-dasharray="6 4"/>
    <g id="ITEM_2_ICON" transform="translate(229, -110)" data-icon-size="54">
      <g transform="translate(-12.266341463414632,-11.961951219512192) scale(0.608780487804878)">
        <path fill="#82AEC0" d="M54.8 85.4c-.4.5-.5 1.2-.1 1.7c2.3 2.7 9.5 11.3 10.7 13c1.4 1.8 0 3.1-.8 3.9c-27.1 27.4-47 20.6-53.4 19.4c-4.1-.8-6-2.8-6.6-6.7c-1.2-8.3-5.1-27.7 21.3-53c1.4-1.3 2.9-1.2 4-.3c.9.7 9.6 8.8 12.1 11.2c.4.4 1 .3 1.4 0c.9-.9 2.5-2.5 3.2-3.1c3.6-3.1 14.7 7.6 11 11.1z"/>
        <path id="SVGI2NChb5k" d="M54.8 85.4c-.4.5-.5 1.2-.1 1.7c2.3 2.7 9.5 11.3 10.7 13c1.4 1.8 0 3.1-.8 3.9c-27.1 27.4-47 20.6-53.4 19.4c-4.1-.8-6-2.8-6.6-6.7c-1.2-8.3-5.1-27.7 21.3-53c1.4-1.3 2.9-1.2 4-.3c.9.7 9.6 8.8 12.1 11.2c.4.4 1 .3 1.4 0c.9-.9 2.5-2.5 3.2-3.1c3.6-3.1 14.7 7.6 11 11.1z"/>
        <path fill="#2F7889" d="m28.3 61.4l-1.8 3.5c-.3.6-.2 1.4.3 1.9l13.8 13.4c.4.4.4 1 0 1.3l-2.4 2.3c-.4.4-1 .4-1.4 0L22.9 70.1c-1-1-1.2-2.6-.3-3.8l4.1-5.8zm30.1 20.5c-1.6 1.6-4.5 1.9-6.6.2c-.3-.3-.8-.2-1.1 0c-4.2 3.9-21.2 19.5-21.7 20c-.6.6-.1 1.3.6.8c9.8-7.3 17.5-8.4 18.8-6.9c2 2.2 7.3 8.3 9.1 10.3c.3.3.3.8 0 1.1c-6.4 6.2-17.5 14.8-33.8 17.6c-1.4.2-1 1.3-.3 1.3h18.4l28.4-26.1l-7 2.7c-.7.3-1.4.1-1.9-.4c-2.6-2.8-10.7-11.7-12.9-14c-.3-.3-.3-.7 0-1c.8-.8 2.1-1.1 8.5-1.4c1.7-.1 1.5-4.2 1.5-4.2" clip-path="url(#SVG9XC5db0L)"/>
        <path fill="#A06841" d="M84.6 34.9S49.8 70.3 48.5 71.7c-2.6 2.8 6 11.6 8.9 8.9c2-1.8 37.4-35.8 37.4-35.8z"/>
        <path id="SVGaKhYkewG" d="M84.6 34.9S49.8 70.3 48.5 71.7c-2.6 2.8 6 11.6 8.9 8.9c2-1.8 37.4-35.8 37.4-35.8z"/>
        <path fill="#7D5133" d="M86.5 56.3c-4.5-4.2-6.3-14.2-1.8-21.1l11.1 11z" clip-path="url(#SVG8G6Dkc4j)"/>
        <path fill="#82AEC0" d="m87.8 30.4l-4.4 4.4c-3 3.1 8.2 14.3 11.3 11.3c1-1 3.1-3 4-3.9c4.7 4.2 10.2 3 13.3 1.5c4.8-2.3 14.8-10.7 13.1-13.2c-.4-.6-1.3-1.6-1.3-1.6s-.8-.8-1.8.1c0 0-8.7 7.9-10.2 9c-2.2 1.6-5.3 1.9-8.1 0c-2.6-1.7-9.3-9.2-11.4-12.2c-1.7-2.5-2.8-5-.9-7.7c1.5-2 9.9-10.2 10.5-11c.9-1 .8-2 .2-2.6c-.4-.5-.9-.9-1.5-1.3c-1.7-1.5-11 6.7-15.1 14.3c-2.8 5 .3 10.2 2.3 12.9"/>
        <path id="SVGJA0CObfb" d="m87.8 30.4l-4.4 4.4c-3 3.1 8.2 14.3 11.3 11.3c1-1 3.1-3 4-3.9c4.7 4.2 10.2 3 13.3 1.5c4.8-2.3 14.8-10.7 13.1-13.2c-.4-.6-1.3-1.6-1.3-1.6s-.8-.8-1.8.1c0 0-8.7 7.9-10.2 9c-2.2 1.6-5.3 1.9-8.1 0c-2.6-1.7-9.3-9.2-11.4-12.2c-1.7-2.5-2.8-5-.9-7.7c1.5-2 9.9-10.2 10.5-11c.9-1 .8-2 .2-2.6c-.4-.5-.9-.9-1.5-1.3c-1.7-1.5-11 6.7-15.1 14.3c-2.8 5 .3 10.2 2.3 12.9"/>
        <path fill="#2F7889" d="m86.9 46.1l6.9-6.5c.5-.5 1.2-.5 1.7 0l3.3 2.7l.7 2.6l-6.7 6.6zm16.5-41.4c-3.5-2.2-13.1 9.7-14.7 12.4c-1.3 2.2-1.4 5.6.3 8.9c2.2 4.2 8.1 11.1 13.2 14.2c3 1.8 6.5 1.7 9 .4c3.2-1.6 13.4-9.9 12.2-12.7s-20-23.2-20-23.2" clip-path="url(#SVGqcOkKgqn)"/>
        <path fill="#A06841" d="M100.9 6.4c7 3.7 17.9 16.7 21.2 22.8c.2.4.2.8 0 1.1c-1.4 2.4-4.1 4.7-7 6.5c-.5.3-1.1.3-1.6-.1c-6.1-4.2-16-14.4-20.4-22.3c-.3-.5-.2-1.1 0-1.5c1.5-2.8 4.2-5.4 6.6-6.5c.4-.2.9-.1 1.2 0"/>
        <path id="SVGJVB7OeoP" d="M100.9 6.4c7 3.7 17.9 16.7 21.2 22.8c.2.4.2.8 0 1.1c-1.4 2.4-4.1 4.7-7 6.5c-.5.3-1.1.3-1.6-.1c-6.1-4.2-16-14.4-20.4-22.3c-.3-.5-.2-1.1 0-1.5c1.5-2.8 4.2-5.4 6.6-6.5c.4-.2.9-.1 1.2 0"/>
        <path fill="#7D5133" d="M104.5 7.2c-2.5.4-9.3 5.1-8.6 12.6c-4.4-2.2-7.2-6.3-7.2-6.3L99.9 2.6z" clip-path="url(#SVGIVfm6ceT)"/>
      </g>
    </g>
    <rect id="ITEM_2_TEXT_BG" x="322.0" y="-156.0" width="416.0" height="204.0" rx="16" fill="var(--panel)" fill-opacity="0.94" stroke="var(--primary-text)" stroke-opacity="0.12" stroke-width="1.5"/>
    <rect x="322.0" y="-156.0" width="416.0" height="204.0" rx="16" fill="url(#svg2b1a2d5e-venn-label-sheen)" opacity="0.85"/>
    <text id="ITEM_2_HEAD" x="340.0" y="-140.0" text-anchor="start" font-weight="bold" font-size="34" fill="var(--semantic-risk)" data-bg-id="ITEM_2_TEXT_BG" fill-opacity="1.0" stroke="none" style="font-size: 30px; font-family: Inter, Segoe UI, Kalam, Roboto, Helvetica, Arial, sans-serif; font-weight: 700; letter-spacing:-0.4px;" data-final-font-size="30">
      <tspan x="340.0" dy="32.25px">Seasonal Melting</tspan>
    </text>
    <rect id="ITEM_2_HEAD_FRAME" x="340" y="-140" width="260" height="48" fill="none"/>
    <text id="ITEM_2_BODY" x="340.0" y="-88.0" text-anchor="start" font-size="20" fill="var(--primary-text)" data-bg-id="ITEM_2_TEXT_BG" style="font-size: 26px; font-family: Inter, Segoe UI, Kalam, Roboto, Helvetica, Arial, sans-serif; font-weight: 400;" data-final-font-size="26">
      <tspan x="340.0" dy="32.84px">Partial exposure followed</tspan>
      <tspan x="340.0" dy="29.90px">by fresh snowfall burial</tspan>
    </text>
    <rect id="ITEM_2_BODY_FRAME" x="340" y="-88" width="380" height="120" fill="none"/>
    <!-- ITEM 3 - Bottom Right -->
    <circle id="ITEM_3_PAD" cx="158" cy="220" r="48" fill="var(--icon-pad-bg)" stroke="var(--primary-text)" opacity="0.9" fill-opacity="0.9" stroke-width="2"/>
    <circle id="ITEM_3_PAD_INNER" cx="158" cy="220" r="37.44" fill="var(--semantic-risk)" fill-opacity="0.22"/>
    <circle cx="158" cy="220" r="38" fill="none" stroke="var(--accent-3)" stroke-width="3" stroke-dasharray="6 4"/>
    <g id="ITEM_3_ICON" transform="translate(131, 193)" data-icon-size="54">
      <g transform="translate(-17.37333333333333,-17.373333333333335) scale(3.6977777777777776)" vector-effect="non-scaling-stroke" fill="#f1f5f9" fill-opacity="1.0" stroke="none">
        <path fill="#f1f5f9" d="M15 3h2l5 2l-5 2v3.17L22 21H2l6-8l3.5 4.7l3.5-7.53z" vector-effect="non-scaling-stroke" stroke="none"/>
      </g>
    </g>
    <rect id="ITEM_3_TEXT_BG" x="224.0" y="154.0" width="416.0" height="202.0" rx="16" fill="var(--panel)" fill-opacity="0.94" stroke="var(--primary-text)" stroke-opacity="0.12" stroke-width="1.5"/>
    <rect x="224.0" y="154.0" width="416.0" height="202.0" rx="16" fill="url(#svg2b1a2d5e-venn-label-sheen)" opacity="0.85"/>
    <text id="ITEM_3_HEAD" x="242.0" y="170.0" text-anchor="start" font-weight="bold" font-size="34" fill="var(--semantic-risk)" data-bg-id="ITEM_3_TEXT_BG" fill-opacity="1.0" stroke="none" style="font-size: 30px; font-family: Inter, Segoe UI, Kalam, Roboto, Helvetica, Arial, sans-serif; font-weight: 700; letter-spacing:-0.4px;" data-final-font-size="30">
      <tspan x="242.0" dy="32.25px">Terrain Obstacles</tspan>
    </text>
    <rect id="ITEM_3_HEAD_FRAME" x="242" y="170" width="260" height="48" fill="none"/>
    <text id="ITEM_3_BODY" x="242.0" y="220.0" text-anchor="start" font-size="20" fill="var(--primary-text)" data-bg-id="ITEM_3_TEXT_BG" style="font-size: 26px; font-family: Inter, Segoe UI, Kalam, Roboto, Helvetica, Arial, sans-serif; font-weight: 400;" data-final-font-size="26">
      <tspan x="242.0" dy="32.84px">Deep crevasses and rock faces</tspan>
      <tspan x="242.0" dy="29.90px">prevent easy access</tspan>
    </text>
    <rect id="ITEM_3_BODY_FRAME" x="242" y="220" width="380" height="120" fill="none"/>
    <!-- ITEM 4 - Bottom Left -->
    <circle id="ITEM_4_PAD" cx="-158" cy="220" r="48" fill="var(--icon-pad-bg)" stroke="var(--primary-text)" opacity="0.9" fill-opacity="0.9" stroke-width="2"/>
    <circle id="ITEM_4_PAD_INNER" cx="-158" cy="220" r="37.44" fill="var(--semantic-risk)" fill-opacity="0.22"/>
    <circle cx="-158" cy="220" r="38" fill="none" stroke="var(--accent-4)" stroke-width="3" stroke-dasharray="6 4"/>
    <g id="ITEM_4_ICON" transform="translate(-185, 193)" data-icon-size="54">
      <g transform="translate(-12.915371900826443,-11.677685950413222) scale(2.4753719008264463)">
        <path d="M30.9986 10.0165C30.7491 5.35595 26.7698 1.77337 22.1095 2.01119C20.5183 2.09085 18.9868 2.62497 17.6845 3.54211C16.6797 4.24918 15.3301 4.24901 14.3253 3.54194C10.5035 0.854248 5.22976 1.77288 2.54204 5.59466C-0.144973 9.41543 0.772522 14.6875 4.59187 17.3759C4.83815 17.5515 5.09815 17.709 5.32128 17.8408L5.33228 17.8473L5.34343 17.8535C5.83237 18.1259 6.15047 18.6362 6.18153 19.1954L6.28194 20.8119L6.28208 20.8142C6.46853 23.7096 7.76254 26.4209 9.90355 28.3764C10.9688 29.3586 12.6302 29.2935 13.6148 28.2282C14.0074 27.8029 14.2416 27.2606 14.3039 26.7003L14.3047 26.6928L14.765 21.8905C14.8062 21.5077 15.0022 20.9738 15.3058 20.5471C15.6333 20.0867 15.896 19.9999 15.9844 19.9999C16.0775 19.9999 16.3486 20.0922 16.684 20.5546C16.9952 20.9836 17.1945 21.5152 17.2351 21.8906L17.6939 26.6785L17.6943 26.6823C17.8251 28.1304 19.099 29.1933 20.5458 29.0662C21.1223 29.0176 21.6744 28.7779 22.1028 28.3706C24.24 26.4156 25.5317 23.7067 25.7179 20.8142L25.7181 20.8119L25.8178 19.2064L25.8179 19.2044C25.856 18.6445 26.173 18.1362 26.6717 17.8507C29.4915 16.2745 31.1687 13.2364 30.9986 10.0165Z" fill="#9B9B9B"/>
        <path d="M29.9999 10.0699C29.7799 5.95989 26.2699 2.79989 22.1599 3.00989C20.7599 3.07989 19.4099 3.54989 18.2599 4.35989C16.9099 5.30989 15.0999 5.30989 13.7499 4.35989C10.3799 1.98989 5.72993 2.79989 3.35993 6.16989C0.989931 9.53989 1.79993 14.1899 5.16993 16.5599C5.37993 16.7099 5.60993 16.8499 5.82993 16.9799C6.61993 17.4199 7.12993 18.2399 7.17993 19.1399L7.27993 20.7499C7.44993 23.3899 8.62993 25.8599 10.5799 27.6399C11.2399 28.2499 12.2699 28.2099 12.8799 27.5499C13.1199 27.2899 13.2699 26.9499 13.3099 26.5899L13.7699 21.7899C13.8899 20.6499 14.8343 18.9999 15.9843 18.9999C17.1343 18.9999 18.1099 20.6499 18.2299 21.7899L18.6899 26.5899C18.7699 27.4899 19.5599 28.1499 20.4599 28.0699C20.8199 28.0399 21.1599 27.8899 21.4199 27.6399C23.3699 25.8599 24.5499 23.3899 24.7199 20.7499L24.8199 19.1399C24.8799 18.2399 25.3899 17.4299 26.1799 16.9799C28.6699 15.5899 30.1499 12.9099 29.9999 10.0699Z" fill="white"/>
        <path d="M24.2188 5.15651C23.5 5.26068 21.7063 5.65651 20.2812 6.40651C20.0018 6.55361 19.7569 6.70532 19.5348 6.85658C19.4845 6.91729 19.4191 6.96695 19.3412 6.9992C19.3333 7.00247 19.3254 7.00585 19.3174 7.00933C19.1361 7.14032 18.9692 7.26967 18.8087 7.39403C18.6197 7.54042 18.4397 7.6799 18.2558 7.80699C18.0059 8.05765 17.7526 8.35287 17.5157 8.68042C16.9048 9.52512 16.4919 10.4634 16.4919 11.2157C16.4919 11.4919 16.2681 11.7157 15.9919 11.7157C15.7158 11.7158 15.4919 11.4919 15.4919 11.2158C15.4919 10.2913 15.9119 9.30075 16.458 8.456C16.3426 8.46456 16.2214 8.46901 16.0938 8.46901C14.5696 8.46901 13.5732 7.7652 12.5899 7.07053C12.2627 6.83943 11.937 6.60934 11.5938 6.40651C10.4938 5.75651 8.28125 5.35443 7.125 5.15651C8.3125 4.83359 10.9437 4.31276 11.9688 4.81276C12.4123 5.02912 12.8783 5.33911 13.3486 5.65197C14.2369 6.24285 15.1407 6.84399 15.9375 6.84399C16.6659 6.84399 17.3609 6.29701 18.0557 5.75013C18.5234 5.38201 18.991 5.01393 19.4688 4.81276C20.4187 4.41275 23.0312 4.87525 24.2188 5.15651Z" fill="#D3D3D3"/>
      </g>
    </g>
    <rect id="ITEM_4_TEXT_BG" x="-640.0" y="154.0" width="416.0" height="202.0" rx="16" fill="var(--panel)" fill-opacity="0.94" stroke="var(--primary-text)" stroke-opacity="0.12" stroke-width="1.5"/>
    <rect x="-640.0" y="154.0" width="416.0" height="202.0" rx="16" fill="url(#svg2b1a2d5e-venn-label-sheen)" opacity="0.85"/>
    <text id="ITEM_4_HEAD" x="-242.0" y="170.0" text-anchor="end" font-weight="bold" font-size="34" fill="var(--semantic-risk)" data-bg-id="ITEM_4_TEXT_BG" fill-opacity="1.0" stroke="none" style="font-size: 30px; font-family: Inter, Segoe UI, Kalam, Roboto, Helvetica, Arial, sans-serif; font-weight: 700; letter-spacing:-0.4px;" data-final-font-size="30">
      <tspan x="-242.0" dy="32.25px">Data Gaps</tspan>
    </text>
    <rect id="ITEM_4_HEAD_FRAME" x="-502" y="170" width="260" height="48" fill="none"/>
    <text id="ITEM_4_BODY" x="-242.0" y="220.0" text-anchor="end" font-size="20" fill="var(--primary-text)" data-bg-id="ITEM_4_TEXT_BG" style="font-size: 26px; font-family: Inter, Segoe UI, Kalam, Roboto, Helvetica, Arial, sans-serif; font-weight: 400;" data-final-font-size="26">
      <tspan x="-242.0" dy="32.84px">Missing dental records or lack</tspan>
      <tspan x="-242.0" dy="29.90px">of living relatives</tspan>
    </text>
    <rect id="ITEM_4_BODY_FRAME" x="-622" y="220" width="380" height="120" fill="none"/>
    <!-- ITEM 5 - Top Left -->
    <circle id="ITEM_5_PAD" cx="-256" cy="-83" r="48" fill="var(--icon-pad-bg)" stroke="var(--primary-text)" opacity="0.9" fill-opacity="0.9" stroke-width="2"/>
    <circle id="ITEM_5_PAD_INNER" cx="-256" cy="-83" r="37.44" fill="var(--semantic-risk)" fill-opacity="0.22"/>
    <circle cx="-256" cy="-83" r="38" fill="none" stroke="var(--accent-5)" stroke-width="3" stroke-dasharray="6 4"/>
    <g id="ITEM_5_ICON" transform="translate(-283, -110)" data-icon-size="54">
      <g transform="translate(-15.788571428571426,-17.12571428571428) scale(2.674285714285714)">
        <path d="M14.1215 9.87866L29.1215 24.8787C30.2931 26.0502 30.2931 27.9497 29.1215 29.1213C27.95 30.2929 26.0505 30.2929 24.8789 29.1213L9.87891 14.1213L14.1215 9.87866Z" fill="#7D4533"/>
        <path d="M12.4272 3.22946C12.534 3.12267 12.6833 3.06987 12.8335 3.0858L16.0299 3.425C16.4479 3.46936 16.6279 3.97849 16.3307 4.27576L13.6065 6.99988C13.6065 6.99988 13.1796 7.51941 13.6568 7.99988L15.6065 9.94963C15.8018 10.1449 15.8018 10.4615 15.6065 10.6567L10.6568 15.6065C10.4615 15.8017 10.1449 15.8017 9.94967 15.6065L9.65968 15.3165L6.49988 14.4999L5.53067 11.1875L5.35348 11.0103C5.15822 10.815 5.15822 10.4984 5.35348 10.3032L12.4272 3.22946Z" fill="#B4ACBC"/>
        <path d="M2.17674 12.2981C2.07911 12.2005 2.07911 12.0422 2.17674 11.9446L2.82021 11.3011C3.60126 10.5201 4.86758 10.5201 5.64863 11.3011L9.53772 15.1902C10.3188 15.9713 10.3188 17.2376 9.53772 18.0186L8.89425 18.6621C8.79662 18.7597 8.63833 18.7597 8.5407 18.6621L2.17674 12.2981Z" fill="#CDC4D6"/>
      </g>
    </g>
    <rect id="ITEM_5_TEXT_BG" x="-738.0" y="-156.0" width="416.0" height="204.0" rx="16" fill="var(--panel)" fill-opacity="0.94" stroke="var(--primary-text)" stroke-opacity="0.12" stroke-width="1.5"/>
    <rect x="-738.0" y="-156.0" width="416.0" height="204.0" rx="16" fill="url(#svg2b1a2d5e-venn-label-sheen)" opacity="0.85"/>
    <text id="ITEM_5_HEAD" x="-340.0" y="-140.0" text-anchor="end" font-weight="bold" font-size="34" fill="var(--semantic-risk)" data-bg-id="ITEM_5_TEXT_BG" fill-opacity="1.0" stroke="none" style="font-size: 30px; font-family: Inter, Segoe UI, Kalam, Roboto, Helvetica, Arial, sans-serif; font-weight: 700; letter-spacing:-0.4px;" data-final-font-size="30">
      <tspan x="-340.0" dy="32.25px">Erosion Effects</tspan>
    </text>
    <rect id="ITEM_5_HEAD_FRAME" x="-600" y="-140" width="260" height="48" fill="none"/>
    <text id="ITEM_5_BODY" x="-340.0" y="-88.0" text-anchor="end" font-size="20" fill="var(--primary-text)" data-bg-id="ITEM_5_TEXT_BG" style="font-size: 26px; font-family: Inter, Segoe UI, Kalam, Roboto, Helvetica, Arial, sans-serif; font-weight: 400;" data-final-font-size="26">
      <tspan x="-340.0" dy="26.86px">Natural weathering destroys</tspan>
      <tspan x="-340.0" dy="29.90px">crucial evidence before</tspan>
      <tspan x="-340.0" dy="29.90px">discovery</tspan>
    </text>
    <rect id="ITEM_5_BODY_FRAME" x="-720" y="-88" width="380" height="120" fill="none"/>
  </g>
  <text id="SOURCE_NOTE" x="134.0" y="1058.0" fill="var(--muted-text)" opacity="0.88" style="font-family: var(--font-family); font-size: 20px;">Source: Introduction</text>
</svg>
